<svg xmlns="http://www.w3.org/2000/svg" xmlns:xlink="http://www.w3.org/1999/xlink" xmlns:lucid="lucid" width="1320" height="1443"><g transform="translate(-200 -180)" lucid:page-tab-id="39ki1DBN9.zh"><path d="M1060 465c0-2.76 2.24-5 5-5h430c2.76 0 5 2.24 5 5v1130c0 2.76-2.24 5-5 5h-430c-2.76 0-5-2.24-5-5z" fill-opacity="0"/><path d="M1085.48 460h20.47m10.24 0h20.47m10.23 0h20.48m10.24 0h20.48m10.23 0h20.48m10.25 0h20.47m10.24 0h20.48m10.24 0h20.47m10.24 0h20.47m10.23 0h20.48m10.24 0h20.48m10.23 0h20.48m10.25 0h20.47m10.24 0H1495l2.95.96 1.8 2.46.25 1.58v9.9m0 9.92v19.83m0 9.9v19.84m0 9.9v19.82m0 9.92v19.82m0 9.9v19.84m0 9.9v19.83m0 9.92v19.82m0 9.9v19.84m0 9.92v19.82m0 9.92v19.82m0 9.9v19.84m0 9.9v19.83m0 9.92v19.82m0 9.9v19.83m0 9.9v19.83m0 9.92v19.82m0 9.9v19.84m0 9.9v19.84m0 9.9v19.83m0 9.92v19.83m0 9.9v19.84m0 9.9v19.82m0 9.92v19.82m0 9.9v19.84m0 9.9v19.83m0 9.92v19.82m0 9.9v19.84m0 9.92v19.82m0 9.92v19.82m0 9.9v19.84m0 9.9v19.83m0 9.92v19.82m0 9.9v19.83m0 9.9v19.83m0 9.92v19.82m0 9.9v19.84m0 9.9v19.84m0 9.9v9.92l-.96 2.95-2.46 1.8-1.58.25h-10.24m-10.24 0h-20.47m-10.24 0h-20.47m-10.23 0h-20.48m-10.24 0h-20.48m-10.23 0h-20.48m-10.25 0h-20.47m-10.24 0h-20.48m-10.24 0h-20.47m-10.24 0h-20.47m-10.23 0h-20.48m-10.24 0h-20.48m-10.23 0h-20.48m-10.25 0h-20.47m-10.24 0H1065l-2.95-.96-1.8-2.46-.25-1.58v-9.9m0-9.92v-19.83m0-9.9v-19.84m0-9.9v-19.82m0-9.92v-19.82m0-9.9v-19.84m0-9.9v-19.83m0-9.92v-19.82m0-9.9v-19.84m0-9.92v-19.82m0-9.92v-19.82m0-9.9v-19.84m0-9.9v-19.83m0-9.92v-19.82m0-9.9v-19.83m0-9.9v-19.83m0-9.92v-19.82m0-9.9v-19.84m0-9.9v-19.84m0-9.9v-19.83m0-9.92v-19.83m0-9.9V960.6m0-9.9v-19.82m0-9.92v-19.82m0-9.9V871.4m0-9.9v-19.83m0-9.92v-19.82m0-9.9v-19.84m0-9.92v-19.82m0-9.92v-19.82m0-9.9v-19.84m0-9.9v-19.83m0-9.92V633.5m0-9.9v-19.83m0-9.9v-19.83m0-9.92V544.3m0-9.9v-19.84m0-9.9V484.8m0-9.9V465l.96-2.95 2.46-1.8 1.58-.25h10.24" stroke="#000" stroke-width="2" fill="none"/><use xlink:href="#a" transform="matrix(1,0,0,1,1065,465) translate(144.91064453125 16.69921875)"/><use xlink:href="#b" transform="matrix(1,0,0,1,1065,465) translate(255.35400390625 16.69921875)"/><path d="M220 690c0-2.76 2.24-5 5-5h750c2.76 0 5 2.24 5 5v270c0 2.76-2.24 5-5 5H225c-2.76 0-5-2.24-5-5z" fill-opacity="0"/><path d="M245 685h20m10 0h20m10 0h20m10 0h20m10 0h20m10 0h20m10 0h20m10 0h20m10 0h20m10 0h20m10 0h20m10 0h20m10 0h20m10 0h20m10 0h20m10 0h20m10 0h20m10 0h20m10 0h20m10 0h20m10 0h20m10 0h20m10 0h20m10 0h20m10 0h10l2.95.96 1.8 2.46.25 1.58v10m0 10v20m0 10v20m0 10v20m0 10v20m0 10v20m0 10v20m0 10v20m0 10v20m0 10v10l-.96 2.95-2.46 1.8-1.58.25h-10m-10 0h-20m-10 0h-20m-10 0h-20m-10 0h-20m-10 0h-20m-10 0h-20m-10 0h-20m-10 0h-20m-10 0h-20m-10 0h-20m-10 0h-20m-10 0h-20m-10 0h-20m-10 0h-20m-10 0h-20m-10 0h-20m-10 0h-20m-10 0h-20m-10 0h-20m-10 0h-20m-10 0h-20m-10 0h-20m-10 0h-20m-10 0h-20m-10 0h-10l-2.95-.96-1.8-2.46L220 960v-10m0-10v-20m0-10v-20m0-10v-20m0-10v-20m0-10v-20m0-10v-20m0-10v-20m0-10v-20m0-10v-10l.96-2.95 2.46-1.8L225 685h10" stroke="#000" stroke-width="2" fill="none"/><use xlink:href="#c" transform="matrix(1,0,0,1,225,690) translate(340.23828125 16.69921875)"/><use xlink:href="#b" transform="matrix(1,0,0,1,225,690) translate(380.0263671875 16.69921875)"/><path d="M780 850c0-2.76 2.24-5 5-5h150c2.76 0 5 2.24 5 5v70c0 2.76-2.24 5-5 5H785c-2.76 0-5-2.24-5-5z" stroke="#000" stroke-width="2" fill="#fff"/><use xlink:href="#d" transform="matrix(1,0,0,1,785.0000000000001,850) translate(57.333984375 41.15234375)"/><path d="M580 850c0-2.76 2.24-5 5-5h150c2.76 0 5 2.24 5 5v70c0 2.76-2.24 5-5 5H585c-2.76 0-5-2.24-5-5z" stroke="#000" stroke-width="2" fill="#fff"/><use xlink:href="#d" transform="matrix(1,0,0,1,585.0000000000001,850) translate(57.333984375 41.15234375)"/><path d="M720 730c0-2.76 2.24-5 5-5h70c2.76 0 5 2.24 5 5v70c0 2.76-2.24 5-5 5h-70c-2.76 0-5-2.24-5-5z" stroke="#000" stroke-width="2" fill="#fff"/><use xlink:href="#e" transform="matrix(1,0,0,1,725.0000000000001,730) translate(24.55419921875 41.15234375)"/><path d="M720 205c0-2.76 2.24-5 5-5h70c2.76 0 5 2.24 5 5v70c0 2.76-2.24 5-5 5h-70c-2.76 0-5-2.24-5-5z" stroke="#000" stroke-width="2" fill="#fff"/><use xlink:href="#f" transform="matrix(1,0,0,1,724.9999999999999,205) translate(4.1591796875 41.15234375)"/><path d="M220 1009c0-2.76 2.24-5 5-5h750c2.76 0 5 2.24 5 5v270c0 2.76-2.24 5-5 5H225c-2.76 0-5-2.24-5-5z" fill-opacity="0"/><path d="M245 1004h20m10 0h20m10 0h20m10 0h20m10 0h20m10 0h20m10 0h20m10 0h20m10 0h20m10 0h20m10 0h20m10 0h20m10 0h20m10 0h20m10 0h20m10 0h20m10 0h20m10 0h20m10 0h20m10 0h20m10 0h20m10 0h20m10 0h20m10 0h20m10 0h10l2.95.96 1.8 2.46.25 1.58v10m0 10v20m0 10v20m0 10v20m0 10v20m0 10v20m0 10v20m0 10v20m0 10v20m0 10v10l-.96 2.95-2.46 1.8-1.58.25h-10m-10 0h-20m-10 0h-20m-10 0h-20m-10 0h-20m-10 0h-20m-10 0h-20m-10 0h-20m-10 0h-20m-10 0h-20m-10 0h-20m-10 0h-20m-10 0h-20m-10 0h-20m-10 0h-20m-10 0h-20m-10 0h-20m-10 0h-20m-10 0h-20m-10 0h-20m-10 0h-20m-10 0h-20m-10 0h-20m-10 0h-20m-10 0h-20m-10 0h-10l-2.95-.96-1.8-2.46-.25-1.58v-10m0-10v-20m0-10v-20m0-10v-20m0-10v-20m0-10v-20m0-10v-20m0-10v-20m0-10v-20m0-10v-10l.96-2.95 2.46-1.8 1.58-.25h10" stroke="#000" stroke-width="2" fill="none"/><use xlink:href="#g" transform="matrix(1,0,0,1,225,1009) translate(312.7373046875 16.69921875)"/><use xlink:href="#b" transform="matrix(1,0,0,1,225,1009) translate(407.52734375 16.69921875)"/><path d="M780 1169c0-2.76 2.24-5 5-5h150c2.76 0 5 2.24 5 5v70c0 2.76-2.24 5-5 5H785c-2.76 0-5-2.24-5-5z" stroke="#000" stroke-width="2" fill="#fff"/><use xlink:href="#h" transform="matrix(1,0,0,1,785.0000000000001,1169) translate(59.0302734375 41.15234375)"/><path d="M580 1169c0-2.76 2.24-5 5-5h150c2.76 0 5 2.24 5 5v70c0 2.76-2.24 5-5 5H585c-2.76 0-5-2.24-5-5z" stroke="#000" stroke-width="2" fill="#fff"/><use xlink:href="#h" transform="matrix(1,0,0,1,585.0000000000001,1169) translate(59.0302734375 41.15234375)"/><path d="M720 1049c0-2.76 2.24-5 5-5h70c2.76 0 5 2.24 5 5v70c0 2.76-2.24 5-5 5h-70c-2.76 0-5-2.24-5-5z" stroke="#000" stroke-width="2" fill="#fff"/><use xlink:href="#e" transform="matrix(1,0,0,1,725.0000000000001,1049) translate(24.55419921875 41.15234375)"/><path d="M540 1328c0-2.76 2.24-5 5-5h430c2.76 0 5 2.24 5 5v270c0 2.76-2.24 5-5 5H545c-2.76 0-5-2.24-5-5z" fill-opacity="0"/><path d="M565.48 1323h20.47m10.24 0h20.47m10.23 0h20.48m10.24 0h20.48m10.23 0h20.48m10.25 0h20.47m10.24 0h20.48m10.24 0h20.47m10.24 0h20.47m10.23 0h20.48m10.24 0h20.48m10.23 0h20.48m10.25 0h20.47m10.24 0H975l2.95.96 1.8 2.46.25 1.58v10m0 10v20m0 10v20m0 10v20m0 10v20m0 10v20m0 10v20m0 10v20m0 10v20m0 10v10l-.96 2.95-2.46 1.8-1.58.25h-10.24m-10.24 0h-20.47m-10.24 0h-20.47m-10.23 0h-20.48m-10.24 0H841.9m-10.23 0H811.2m-10.25 0h-20.47m-10.24 0h-20.48m-10.24 0h-20.47m-10.24 0h-20.47m-10.23 0h-20.48m-10.24 0H626.9m-10.23 0H596.2m-10.25 0h-20.47m-10.24 0H545l-2.95-.96-1.8-2.46-.25-1.58v-10m0-10v-20m0-10v-20m0-10v-20m0-10v-20m0-10v-20m0-10v-20m0-10v-20m0-10v-20m0-10v-10l.96-2.95 2.46-1.8 1.58-.25h10.24" stroke="#000" stroke-width="2" fill="none"/><use xlink:href="#i" transform="matrix(1,0,0,1,545,1328) translate(159.91796875 16.69921875)"/><use xlink:href="#b" transform="matrix(1,0,0,1,545,1328) translate(240.3466796875 16.69921875)"/><path d="M780 1488c0-2.76 2.24-5 5-5h150c2.76 0 5 2.24 5 5v70c0 2.76-2.24 5-5 5H785c-2.76 0-5-2.24-5-5z" stroke="#000" stroke-width="2" fill="#fff"/><use xlink:href="#i" transform="matrix(1,0,0,1,785,1488) translate(13.3623046875 41.15234375)"/><use xlink:href="#j" transform="matrix(1,0,0,1,785,1488) translate(93.791015625 41.15234375)"/><path d="M580 1488c0-2.76 2.24-5 5-5h150c2.76 0 5 2.24 5 5v70c0 2.76-2.24 5-5 5H585c-2.76 0-5-2.24-5-5z" stroke="#000" stroke-width="2" fill="#fff"/><use xlink:href="#i" transform="matrix(1,0,0,1,585,1488) translate(6.638671875 41.15234375)"/><use xlink:href="#k" transform="matrix(1,0,0,1,585,1488) translate(87.0673828125 41.15234375)"/><path d="M720 1368c0-2.76 2.24-5 5-5h70c2.76 0 5 2.24 5 5v70c0 2.76-2.24 5-5 5h-70c-2.76 0-5-2.24-5-5z" stroke="#000" stroke-width="2" fill="#fff"/><use xlink:href="#e" transform="matrix(1,0,0,1,725,1368) translate(24.55419921875 41.15234375)"/><path d="M680 325c0-2.76 2.24-5 5-5h150c2.76 0 5 2.24 5 5v70c0 2.76-2.24 5-5 5H685c-2.76 0-5-2.24-5-5z" stroke="#000" stroke-width="2" fill="#fff"/><use xlink:href="#l" transform="matrix(1,0,0,1,685,325) translate(51.66943359375 30.60546875)"/><use xlink:href="#m" transform="matrix(1,0,0,1,685,325) translate(34.6669921875 51.69921875)"/><path d="M1100 525c0-2.76 2.24-5 5-5h350c2.76 0 5 2.24 5 5v70c0 2.76-2.24 5-5 5h-350c-2.76 0-5-2.24-5-5z" stroke="#000" stroke-width="2" fill="#fff"/><use xlink:href="#n" transform="matrix(1,0,0,1,1105,525) translate(43.13330078125 30.60546875)"/><use xlink:href="#o" transform="matrix(1,0,0,1,1105,525) translate(118.70166015625 30.60546875)"/><use xlink:href="#p" transform="matrix(1,0,0,1,1105,525) translate(191.20263671875 30.60546875)"/><use xlink:href="#q" transform="matrix(1,0,0,1,1105,525) translate(237.98681640625 30.60546875)"/><use xlink:href="#r" transform="matrix(1,0,0,1,1105,525) translate(273.17822265625 30.60546875)"/><use xlink:href="#s" transform="matrix(1,0,0,1,1105,525) translate(17.00341796875 51.69921875)"/><use xlink:href="#t" transform="matrix(1,0,0,1,1105,525) translate(88.71337890625 51.69921875)"/><use xlink:href="#u" transform="matrix(1,0,0,1,1105,525) translate(163.73681640625 51.69921875)"/><path d="M680 565c0-2.76 2.24-5 5-5h150c2.76 0 5 2.24 5 5v70c0 2.76-2.24 5-5 5H685c-2.76 0-5-2.24-5-5z" stroke="#000" stroke-width="2" fill="#fff"/><use xlink:href="#c" transform="matrix(1,0,0,1,685,565) translate(9.93896484375 30.60546875)"/><use xlink:href="#v" transform="matrix(1,0,0,1,685,565) translate(49.72705078125 30.60546875)"/><use xlink:href="#w" transform="matrix(1,0,0,1,685,565) translate(44.08447265625 51.69921875)"/><path d="M1100 645c0-2.76 2.24-5 5-5h170c2.76 0 5 2.24 5 5v70c0 2.76-2.24 5-5 5h-170c-2.76 0-5-2.24-5-5z" stroke="#000" stroke-width="2" fill="#fff"/><use xlink:href="#x" transform="matrix(1,0,0,1,1105,645) translate(36.185546875 30.60546875)"/><use xlink:href="#y" transform="matrix(1,0,0,1,1105,645) translate(77.9072265625 30.60546875)"/><use xlink:href="#z" transform="matrix(1,0,0,1,1105,645) translate(98.0341796875 30.60546875)"/><use xlink:href="#A" transform="matrix(1,0,0,1,1105,645) translate(42.55322265625 51.69921875)"/><path d="M1320 645c0-2.76 2.24-5 5-5h130c2.76 0 5 2.24 5 5v70c0 2.76-2.24 5-5 5h-130c-2.76 0-5-2.24-5-5z" stroke="#000" stroke-width="2" fill="#fff"/><use xlink:href="#x" transform="matrix(1,0,0,1,1325,645) translate(7.22509765625 30.60546875)"/><use xlink:href="#B" transform="matrix(1,0,0,1,1325,645) translate(48.94677734375 30.60546875)"/><use xlink:href="#C" transform="matrix(1,0,0,1,1325,645) translate(67.70263671875 30.60546875)"/><use xlink:href="#A" transform="matrix(1,0,0,1,1325,645) translate(22.55322265625 51.69921875)"/><path d="M1100 885c0-2.76 2.24-5 5-5h350c2.76 0 5 2.24 5 5v70c0 2.76-2.24 5-5 5h-350c-2.76 0-5-2.24-5-5z" stroke="#000" stroke-width="2" fill="#fff"/><use xlink:href="#D" transform="matrix(1,0,0,1,1105,885) translate(87.162109375 41.15234375)"/><use xlink:href="#E" transform="matrix(1,0,0,1,1105,885) translate(197.1572265625 41.15234375)"/><path d="M1100 1005c0-2.76 2.24-5 5-5h350c2.76 0 5 2.24 5 5v70c0 2.76-2.24 5-5 5h-350c-2.76 0-5-2.24-5-5z" stroke="#000" stroke-width="2" fill="#fff"/><use xlink:href="#F" transform="matrix(1,0,0,1,1105,1005) translate(59.001953125 41.15234375)"/><use xlink:href="#G" transform="matrix(1,0,0,1,1105,1005) translate(156.314453125 41.15234375)"/><use xlink:href="#E" transform="matrix(1,0,0,1,1105,1005) translate(225.3173828125 41.15234375)"/><path d="M1100 1365c0-2.76 2.24-5 5-5h350c2.76 0 5 2.24 5 5v70c0 2.76-2.24 5-5 5h-350c-2.76 0-5-2.24-5-5z" stroke="#000" stroke-width="2" fill="#fff"/><use xlink:href="#H" transform="matrix(1,0,0,1,1105,1365) translate(52.4716796875 30.60546875)"/><use xlink:href="#I" transform="matrix(1,0,0,1,1105,1365) translate(121.3427734375 30.60546875)"/><use xlink:href="#J" transform="matrix(1,0,0,1,1105,1365) translate(219.244140625 30.60546875)"/><use xlink:href="#K" transform="matrix(1,0,0,1,1105,1365) translate(253.57421875 30.60546875)"/><use xlink:href="#L" transform="matrix(1,0,0,1,1105,1365) translate(86.93798828125 51.69921875)"/><use xlink:href="#E" transform="matrix(1,0,0,1,1105,1365) translate(197.38134765625 51.69921875)"/><path d="M1100 1485c0-2.76 2.24-5 5-5h350c2.76 0 5 2.24 5 5v70c0 2.76-2.24 5-5 5h-350c-2.76 0-5-2.24-5-5z" stroke="#000" stroke-width="2" fill="#fff"/><use xlink:href="#M" transform="matrix(1,0,0,1,1105,1485) translate(15.62353515625 20.05859375)"/><use xlink:href="#N" transform="matrix(1,0,0,1,1105,1485) translate(98.67138671875 20.05859375)"/><use xlink:href="#O" transform="matrix(1,0,0,1,1105,1485) translate(228.38916015625 20.05859375)"/><use xlink:href="#P" transform="matrix(1,0,0,1,1105,1485) translate(12.14306640625 41.15234375)"/><use xlink:href="#Q" transform="matrix(1,0,0,1,1105,1485) translate(82.27978515625 41.15234375)"/><use xlink:href="#R" transform="matrix(1,0,0,1,1105,1485) translate(120.42431640625 41.15234375)"/><use xlink:href="#S" transform="matrix(1,0,0,1,1105,1485) translate(221.02392578125 41.15234375)"/><use xlink:href="#J" transform="matrix(1,0,0,1,1105,1485) translate(102.30126953125 62.24609375)"/><use xlink:href="#T" transform="matrix(1,0,0,1,1105,1485) translate(136.63134765625 62.24609375)"/><use xlink:href="#U" transform="matrix(1,0,0,1,1105,1485) translate(183.15185546875 62.24609375)"/><path d="M1100 1245c0-2.76 2.24-5 5-5h350c2.76 0 5 2.24 5 5v70c0 2.76-2.24 5-5 5h-350c-2.76 0-5-2.24-5-5z" stroke="#000" stroke-width="2" fill="#fff"/><g><use xlink:href="#V" transform="matrix(1,0,0,1,1105,1245) translate(27.52392578125 30.60546875)"/><use xlink:href="#W" transform="matrix(1,0,0,1,1105,1245) translate(81.51513671875 30.60546875)"/><use xlink:href="#X" transform="matrix(1,0,0,1,1105,1245) translate(114.96630859375 30.60546875)"/><use xlink:href="#J" transform="matrix(1,0,0,1,1105,1245) translate(227.88818359375 30.60546875)"/><use xlink:href="#Y" transform="matrix(1,0,0,1,1105,1245) translate(262.21826171875 30.60546875)"/><use xlink:href="#Z" transform="matrix(1,0,0,1,1105,1245) translate(144.09326171875 51.69921875)"/></g><path d="M680 445c0-2.76 2.24-5 5-5h150c2.76 0 5 2.24 5 5v70c0 2.76-2.24 5-5 5H685c-2.76 0-5-2.24-5-5z" stroke="#000" stroke-width="2" fill="#fff"/><g><use xlink:href="#aa" transform="matrix(1,0,0,1,685,445) translate(21.931640625 41.15234375)"/><use xlink:href="#ab" transform="matrix(1,0,0,1,685,445) translate(66.2373046875 41.15234375)"/></g><path d="M1100 1125c0-2.76 2.24-5 5-5h150c2.76 0 5 2.24 5 5v70c0 2.76-2.24 5-5 5h-150c-2.76 0-5-2.24-5-5z" stroke="#000" stroke-width="2" fill="#fff"/><g><use xlink:href="#ac" transform="matrix(1,0,0,1,1105,1125) translate(51.8671875 20.05859375)"/><use xlink:href="#O" transform="matrix(1,0,0,1,1105,1125) translate(22.00634765625 41.15234375)"/><use xlink:href="#E" transform="matrix(1,0,0,1,1105,1125) translate(42.15966796875 62.24609375)"/></g><path d="M1300 1125c0-2.76 2.24-5 5-5h150c2.76 0 5 2.24 5 5v70c0 2.76-2.24 5-5 5h-150c-2.76 0-5-2.24-5-5z" stroke="#000" stroke-width="2" fill="#fff"/><g><use xlink:href="#ad" transform="matrix(1,0,0,1,1305,1125) translate(12.83935546875 30.60546875)"/><use xlink:href="#ae" transform="matrix(1,0,0,1,1305,1125) translate(77.59716796875 30.60546875)"/><use xlink:href="#E" transform="matrix(1,0,0,1,1305,1125) translate(42.15966796875 51.69921875)"/></g><path d="M260 729c0-2.76 2.24-5 5-5h230c2.76 0 5 2.24 5 5v186c0 2.76-2.24 5-5 5H265c-2.76 0-5-2.24-5-5z" fill-opacity="0"/><path d="M284.17 724h19.16m9.6 0h19.15m9.6 0h19.15m9.6 0h19.15m9.6 0h19.15m9.6 0h19.15m9.6 0h19.15m9.6 0H495l2.95.96 1.8 2.46.25 1.58v10.33m0 10.34v20.66m0 10.34v20.66m0 10.34v20.66m0 10.34v20.66m0 10.34v20.66m0 10.34V915l-.96 2.95-2.46 1.8-1.58.25h-9.58m-9.6 0h-19.15m-9.6 0h-19.15m-9.6 0h-19.15m-9.6 0h-19.15m-9.6 0h-19.15m-9.6 0h-19.15m-9.6 0h-19.15m-9.6 0H265l-2.95-.96-1.8-2.46L260 915v-10.33m0-10.34v-20.66m0-10.34v-20.66m0-10.34v-20.66m0-10.34v-20.66m0-10.34v-20.66m0-10.34V729l.96-2.95 2.46-1.8L265 724h9.58" stroke="#000" stroke-width="2" fill="none"/><g><use xlink:href="#af" transform="matrix(1,0,0,1,265,729) translate(38.06494140625 16.69921875)"/><use xlink:href="#ag" transform="matrix(1,0,0,1,265,729) translate(111.69091796875 16.69921875)"/><use xlink:href="#b" transform="matrix(1,0,0,1,265,729) translate(161.19970703125 16.69921875)"/></g><path d="M300 787c0-2.76 2.24-5 5-5h150c2.76 0 5 2.24 5 5v70c0 2.76-2.24 5-5 5H305c-2.76 0-5-2.24-5-5z" stroke="#000" stroke-width="2" fill="#fff"/><g><use xlink:href="#ah" transform="matrix(1,0,0,1,305,787) translate(17.5458984375 41.15234375)"/><use xlink:href="#ai" transform="matrix(1,0,0,1,305,787) translate(87.6650390625 41.15234375)"/></g><path d="M260 1049c0-2.76 2.24-5 5-5h230c2.76 0 5 2.24 5 5v186c0 2.76-2.24 5-5 5H265c-2.76 0-5-2.24-5-5z" fill-opacity="0"/><path d="M284.17 1044h19.16m9.6 0h19.15m9.6 0h19.15m9.6 0h19.15m9.6 0h19.15m9.6 0h19.15m9.6 0h19.15m9.6 0H495l2.95.96 1.8 2.46.25 1.58v10.33m0 10.34v20.66m0 10.34v20.66m0 10.34v20.66m0 10.34v20.66m0 10.34v20.66m0 10.34V1235l-.96 2.95-2.46 1.8-1.58.25h-9.58m-9.6 0h-19.15m-9.6 0h-19.15m-9.6 0h-19.15m-9.6 0h-19.15m-9.6 0h-19.15m-9.6 0h-19.15m-9.6 0h-19.15m-9.6 0H265l-2.95-.96-1.8-2.46-.25-1.58v-10.33m0-10.34v-20.66m0-10.34v-20.66m0-10.34v-20.66m0-10.34v-20.66m0-10.34v-20.66m0-10.34V1049l.96-2.95 2.46-1.8 1.58-.25h9.58" stroke="#000" stroke-width="2" fill="none"/><g><use xlink:href="#aj" transform="matrix(1,0,0,1,265,1049) translate(54.24560546875 16.69921875)"/><use xlink:href="#b" transform="matrix(1,0,0,1,265,1049) translate(145.01904296875 16.69921875)"/></g><path d="M300 1107c0-2.76 2.24-5 5-5h150c2.76 0 5 2.24 5 5v70c0 2.76-2.24 5-5 5H305c-2.76 0-5-2.24-5-5z" stroke="#000" stroke-width="2" fill="#fff"/><g><use xlink:href="#ak" transform="matrix(1,0,0,1,305,1107) translate(10.541015625 30.60546875)"/><use xlink:href="#al" transform="matrix(1,0,0,1,305,1107) translate(88.236328125 30.60546875)"/><use xlink:href="#am" transform="matrix(1,0,0,1,305,1107) translate(123.1025390625 30.60546875)"/><use xlink:href="#an" transform="matrix(1,0,0,1,305,1107) translate(24.1904296875 51.69921875)"/><use xlink:href="#ao" transform="matrix(1,0,0,1,305,1107) translate(56.6396484375 51.69921875)"/></g><path d="M660 1246v19c0 2.76-2.24 5-5 5H385c-2.76 0-5-2.24-5-5v-63.5" stroke="#c92d39" stroke-width="2" fill="none"/><path d="M661 1246.03h-2V1245h2z" fill="#c92d39"/><path d="M380 1186.24l4.64 14.26h-9.28z" stroke="#c92d39" stroke-width="2" fill="#c92d39"/><path d="M380 1100V881.5" stroke="#c92d39" stroke-width="2" fill="none"/><path d="M381 1101h-2v-1.03h2z" fill="#c92d39"/><path d="M380 866.24l4.64 14.26h-9.28z" stroke="#c92d39" stroke-width="2" fill="#c92d39"/><path d="M380 780V245c0-2.76 2.24-5 5-5h315.5" stroke="#c92d39" stroke-width="2" fill="none"/><path d="M381 781h-2v-1.03h2z" fill="#c92d39"/><path d="M715.76 240l-14.26 4.64v-9.28z" stroke="#c92d39" stroke-width="2" fill="#c92d39"/><path d="M860 1246v19c0 2.76-2.24 5-5 5H385c-2.76 0-5-2.24-5-5v-63.5" stroke="#c92d39" stroke-width="2" fill="none"/><path d="M861 1246.03h-2V1245h2z" fill="#c92d39"/><path d="M380 1186.24l4.64 14.26h-9.28z" stroke="#c92d39" stroke-width="2" fill="#c92d39"/><path d="M1100 765c0-2.76 2.24-5 5-5h350c2.76 0 5 2.24 5 5v70c0 2.76-2.24 5-5 5h-350c-2.76 0-5-2.24-5-5z" stroke="#000" stroke-width="2" fill="#fff"/><g><use xlink:href="#ap" transform="matrix(1,0,0,1,1105,765) translate(59.69189453125 30.60546875)"/><use xlink:href="#aq" transform="matrix(1,0,0,1,1105,765) translate(141.96630859375 30.60546875)"/><use xlink:href="#ar" transform="matrix(1,0,0,1,1105,765) translate(215.37255859375 30.60546875)"/><use xlink:href="#as" transform="matrix(1,0,0,1,1105,765) translate(90.0185546875 51.69921875)"/><use xlink:href="#at" transform="matrix(1,0,0,1,1105,765) translate(128.1630859375 51.69921875)"/><use xlink:href="#au" transform="matrix(1,0,0,1,1105,765) translate(159.9091796875 51.69921875)"/></g><g class="lucid-layer" lucid:layer-id="OimisHcqW5Py" display="block"><path d="M760 807v13c0 2.76 2.24 5 5 5h94.5c.28 0 .5.22.5.5" stroke="#7ab648" stroke-width="2" fill="none"/><path d="M761 807.03h-2V806h2z" fill="#7ab648"/><path d="M860 840.76l-4.64-14.26h9.28z" stroke="#7ab648" stroke-width="2" fill="#7ab648"/><path d="M760 807v13c0 2.76-2.24 5-5 5h-94.5c-.28 0-.5.22-.5.5" stroke="#7ab648" stroke-width="2" fill="none"/><path d="M761 807.03h-2V806h2z" fill="#7ab648"/><path d="M660 840.76l-4.64-14.26h9.28z" stroke="#7ab648" stroke-width="2" fill="#7ab648"/><path d="M760 282v18.5" stroke="#7ab648" stroke-width="2" fill="none"/><path d="M761 282.03h-2V281h2z" fill="#7ab648"/><path d="M760 315.76l-4.64-14.26h9.28z" stroke="#7ab648" stroke-width="2" fill="#7ab648"/><path d="M760 1126v13c0 2.76 2.24 5 5 5h94.5c.28 0 .5.22.5.5" stroke="#7ab648" stroke-width="2" fill="none"/><path d="M761 1126.03h-2V1125h2z" fill="#7ab648"/><path d="M860 1159.76l-4.64-14.26h9.28z" stroke="#7ab648" stroke-width="2" fill="#7ab648"/><path d="M760 1126v13c0 2.76-2.24 5-5 5h-94.5c-.28 0-.5.22-.5.5" stroke="#7ab648" stroke-width="2" fill="none"/><path d="M761 1126.03h-2V1125h2z" fill="#7ab648"/><path d="M660 1159.76l-4.64-14.26h9.28z" stroke="#7ab648" stroke-width="2" fill="#7ab648"/><path d="M760 1445v13c0 2.76 2.24 5 5 5h94.5c.28 0 .5.22.5.5" stroke="#7ab648" stroke-width="2" fill="none"/><path d="M761 1445.03h-2V1444h2z" fill="#7ab648"/><path d="M860 1478.76l-4.64-14.26h9.28z" stroke="#7ab648" stroke-width="2" fill="#7ab648"/><path d="M760 1445v13c0 2.76-2.24 5-5 5h-94.5c-.28 0-.5.22-.5.5" stroke="#7ab648" stroke-width="2" fill="none"/><path d="M761 1445.03h-2V1444h2z" fill="#7ab648"/><path d="M660 1478.76l-4.64-14.26h9.28z" stroke="#7ab648" stroke-width="2" fill="#7ab648"/><path d="M860 927v52.5c0 2.76-2.24 5-5 5h-90c-2.76 0-5 2.24-5 5v35" stroke="#7ab648" stroke-width="2" fill="none"/><path d="M861 927.03h-2V926h2z" fill="#7ab648"/><path d="M760 1039.76l-4.64-14.26h9.28z" stroke="#7ab648" stroke-width="2" fill="#7ab648"/><path d="M660 927v52.5c0 2.76 2.24 5 5 5h90c2.76 0 5 2.24 5 5v35" stroke="#7ab648" stroke-width="2" fill="none"/><path d="M661 927.03h-2V926h2z" fill="#7ab648"/><path d="M760 1039.76l-4.64-14.26h9.28z" stroke="#7ab648" stroke-width="2" fill="#7ab648"/><path d="M860 1246v52.5c0 2.76-2.24 5-5 5h-90c-2.76 0-5 2.24-5 5v35" stroke="#7ab648" stroke-width="2" fill="none"/><path d="M861 1246.03h-2V1245h2z" fill="#7ab648"/><path d="M760 1358.76l-4.64-14.26h9.28z" stroke="#7ab648" stroke-width="2" fill="#7ab648"/><path d="M660 1246v19c2.76 0 5 2.24 5 5s-2.24 5-5 5v23.5c0 2.76 2.24 5 5 5h90c2.76 0 5 2.24 5 5v35" stroke="#7ab648" stroke-width="2" fill="none"/><path d="M661 1246.03h-2V1245h2z" fill="#7ab648"/><path d="M760 1358.76l-4.64-14.26h9.28z" stroke="#7ab648" stroke-width="2" fill="#7ab648"/><path d="M760 402v18.5" stroke="#7ab648" stroke-width="2" fill="none"/><path d="M761 402.03h-2V401h2z" fill="#7ab648"/><path d="M760 435.76l-4.64-14.26h9.28z" stroke="#7ab648" stroke-width="2" fill="#7ab648"/><path d="M760 522v18.5" stroke="#7ab648" stroke-width="2" fill="none"/><path d="M761 522.03h-2V521h2z" fill="#7ab648"/><path d="M760 555.76l-4.64-14.26h9.28z" stroke="#7ab648" stroke-width="2" fill="#7ab648"/><path d="M760 642v63.5" stroke="#7ab648" stroke-width="2" fill="none"/><path d="M761 642.03h-2V641h2z" fill="#7ab648"/><path d="M760 720.76l-4.64-14.26h9.28z" stroke="#7ab648" stroke-width="2" fill="#7ab648"/></g><defs><path d="M417-1456L893-268l476-1188h249V0h-192c-4-403 4-794 18-1179L966 0H819L342-1176c15 384 23 773 19 1176H169v-1456h248" id="av"/><path d="M561-1102c238-4 403 126 403 351v498c0 99 13 178 38 237V0H808c-11-21-19-59-26-114C696-25 593 20 474 20c-199 0-368-130-365-320 4-251 214-359 490-356h180v-85c-1-135-86-212-229-212-115 0-232 67-233 171H131c20-205 206-316 430-320zM294-326c0 117 90 185 207 185 122 0 239-75 278-162v-222H634c-227 0-340 66-340 199" id="aw"/><path d="M589-945c-131 0-219 81-264 174V0H140v-1082h175l6 136c83-104 191-156 324-156 229 0 346 129 346 387V0H806v-716c-2-153-65-229-217-229" id="ax"/><path d="M521 20C240 20 96-239 96-550c0-303 147-552 427-552 132 0 235 47 309 140l9-120h169V-26c4 277-183 454-459 452-165-1-334-81-400-187l96-111c79 98 176 147 291 147 180 1 288-109 286-290v-93C750-23 649 20 521 20zm48-965c-209 0-287 178-287 416 0 217 86 392 285 392 117 0 202-53 257-159v-494c-57-103-142-155-255-155" id="ay"/><path d="M599-131c141 0 220-65 285-146l113 88C906-50 770 20 589 20 281 21 93-214 93-545c0-223 93-397 233-485 74-48 154-72 240-72 300 2 449 218 445 537v77H278c0 197 129 357 321 357zm227-509c-3-180-88-310-260-310-170 0-264 140-282 310h542" id="az"/><path d="M1240-945c-141 0-250 95-250 227V0H804v-709c0-157-77-236-231-236-121 0-204 52-249 155V0H139v-1082h175l5 120c79-93 186-140 321-140 151 0 254 58 309 174 69-98 181-174 345-174 237 0 362 126 362 377V0h-185v-714c-2-159-67-231-231-231" id="aA"/><path d="M456 20C285 20 205-92 206-268v-671H9v-143h197v-262h185v262h202v143H391v671c-9 125 92 149 207 118V0c-49 13-96 20-142 20" id="aB"/><g id="a"><use transform="matrix(0.0087890625,0,0,0.0087890625,0,0)" xlink:href="#av"/><use transform="matrix(0.0087890625,0,0,0.0087890625,15.71484375,0)" xlink:href="#aw"/><use transform="matrix(0.0087890625,0,0,0.0087890625,25.505859375,0)" xlink:href="#ax"/><use transform="matrix(0.0087890625,0,0,0.0087890625,35.4375,0)" xlink:href="#aw"/><use transform="matrix(0.0087890625,0,0,0.0087890625,45.228515625,0)" xlink:href="#ay"/><use transform="matrix(0.0087890625,0,0,0.0087890625,55.3271484375,0)" xlink:href="#az"/><use transform="matrix(0.0087890625,0,0,0.0087890625,64.86328125,0)" xlink:href="#aA"/><use transform="matrix(0.0087890625,0,0,0.0087890625,80.6396484375,0)" xlink:href="#az"/><use transform="matrix(0.0087890625,0,0,0.0087890625,90.17578125,0)" xlink:href="#ax"/><use transform="matrix(0.0087890625,0,0,0.0087890625,100.107421875,0)" xlink:href="#aB"/></g><path d="M1175-1298H707V0H516v-1298H49v-158h1126v158" id="aC"/><path d="M341 0H156v-1082h185V0zm-91-1264c-68 0-108-42-109-105 0-62 41-107 109-107s110 44 110 107-42 105-110 105" id="aD"/><path d="M663-916c-163-27-288 18-338 148V0H140v-1082h180l3 125c61-97 147-145 258-145 36 0 63 5 82 14v172" id="aE"/><g id="b"><use transform="matrix(0.0087890625,0,0,0.0087890625,0,0)" xlink:href="#aC"/><use transform="matrix(0.0087890625,0,0,0.0087890625,10.740234375,0)" xlink:href="#aD"/><use transform="matrix(0.0087890625,0,0,0.0087890625,15.1083984375,0)" xlink:href="#az"/><use transform="matrix(0.0087890625,0,0,0.0087890625,24.64453125,0)" xlink:href="#aE"/></g><path d="M483-459l28 192 41-173 288-1016h162l281 1016 40 176 31-196 226-996h193L1420 0h-175L945-1061l-23-111-23 111L588 0H413L61-1456h192" id="aF"/><path d="M634-1102c292 0 422 254 422 573 0 298-143 547-420 549-137 0-242-48-317-145L310 0H140v-1536h185v573c75-93 178-139 309-139zm-44 965c207 0 281-175 281-413 0-224-79-395-283-395-122 0-210 57-263 170v468c57 113 145 170 265 170" id="aG"/><g id="c"><use transform="matrix(0.0087890625,0,0,0.0087890625,0,0)" xlink:href="#aF"/><use transform="matrix(0.0087890625,0,0,0.0087890625,15.697265625,0)" xlink:href="#az"/><use transform="matrix(0.0087890625,0,0,0.0087890625,25.2333984375,0)" xlink:href="#aG"/></g><g id="d"><use transform="matrix(0.0087890625,0,0,0.0087890625,0,0)" xlink:href="#aF"/><use transform="matrix(0.0087890625,0,0,0.0087890625,15.697265625,0)" xlink:href="#az"/><use transform="matrix(0.0087890625,0,0,0.0087890625,25.2333984375,0)" xlink:href="#aG"/></g><path d="M362-157h690V0H169v-1456h193v1299" id="aH"/><path d="M1160-420C1159-145 963 0 674 0H169v-1456h476c294-1 476 112 476 388 0 153-99 253-216 302 146 38 255 167 255 346zM678-157c171 2 289-95 289-261 0-175-95-263-286-263H361v524h317zm250-912c-2-172-104-229-283-229H361v463h290c157 3 278-84 277-234" id="aI"/><g id="e"><use transform="matrix(0.0087890625,0,0,0.0087890625,0,0)" xlink:href="#aH"/><use transform="matrix(0.0087890625,0,0,0.0087890625,9.685546875,0)" xlink:href="#aI"/></g><path d="M375 0H183v-1456h192V0" id="aJ"/><g id="f"><use transform="matrix(0.0087890625,0,0,0.0087890625,0,0)" xlink:href="#aJ"/><use transform="matrix(0.0087890625,0,0,0.0087890625,4.8955078125,0)" xlink:href="#ax"/><use transform="matrix(0.0087890625,0,0,0.0087890625,14.8271484375,0)" xlink:href="#aB"/><use transform="matrix(0.0087890625,0,0,0.0087890625,20.70703125,0)" xlink:href="#az"/><use transform="matrix(0.0087890625,0,0,0.0087890625,30.2431640625,0)" xlink:href="#aE"/><use transform="matrix(0.0087890625,0,0,0.0087890625,36.333984375,0)" xlink:href="#ax"/><use transform="matrix(0.0087890625,0,0,0.0087890625,46.265625,0)" xlink:href="#az"/><use transform="matrix(0.0087890625,0,0,0.0087890625,55.8017578125,0)" xlink:href="#aB"/></g><path d="M973-380H363L226 0H28l556-1456h168L1309 0h-197zM421-538h495l-248-681" id="aK"/><path d="M632-1102c291 0 422 251 422 573 0 297-141 548-419 549-131 0-235-42-310-125v521H140v-1498h169l9 120c75-93 180-140 314-140zm-53 971c207 0 290-180 290-419 0-218-92-395-292-395-112 0-196 50-252 149v517c55 99 140 148 254 148" id="aL"/><path d="M341 0H156v-1536h185V0" id="aM"/><path d="M277-555c0 244 77 420 297 424 127 2 249-93 255-210h175C980-127 805 20 574 20 258 20 81-222 92-562c11-319 164-533 481-540 237-5 426 165 431 392H829c-7-133-115-242-256-240-209 4-296 166-296 395" id="aN"/><path d="M584 20C278 26 81-227 91-551c10-320 175-545 491-551 308-5 503 247 494 573-9 322-175 543-492 549zm-2-970c-208 0-305 185-305 421 0 216 106 398 307 398 211 0 307-186 307-420 0-214-109-399-309-399" id="aO"/><g id="g"><use transform="matrix(0.0087890625,0,0,0.0087890625,0,0)" xlink:href="#aK"/><use transform="matrix(0.0087890625,0,0,0.0087890625,11.7421875,0)" xlink:href="#aL"/><use transform="matrix(0.0087890625,0,0,0.0087890625,21.8408203125,0)" xlink:href="#aL"/><use transform="matrix(0.0087890625,0,0,0.0087890625,31.939453125,0)" xlink:href="#aM"/><use transform="matrix(0.0087890625,0,0,0.0087890625,36.3076171875,0)" xlink:href="#aD"/><use transform="matrix(0.0087890625,0,0,0.0087890625,40.67578125,0)" xlink:href="#aN"/><use transform="matrix(0.0087890625,0,0,0.0087890625,50.09765625,0)" xlink:href="#aw"/><use transform="matrix(0.0087890625,0,0,0.0087890625,59.888671875,0)" xlink:href="#aB"/><use transform="matrix(0.0087890625,0,0,0.0087890625,65.7685546875,0)" xlink:href="#aD"/><use transform="matrix(0.0087890625,0,0,0.0087890625,70.13671875,0)" xlink:href="#aO"/><use transform="matrix(0.0087890625,0,0,0.0087890625,80.40234375,0)" xlink:href="#ax"/></g><g id="h"><use transform="matrix(0.0087890625,0,0,0.0087890625,0,0)" xlink:href="#aK"/><use transform="matrix(0.0087890625,0,0,0.0087890625,11.7421875,0)" xlink:href="#aL"/><use transform="matrix(0.0087890625,0,0,0.0087890625,21.8408203125,0)" xlink:href="#aL"/></g><path d="M1222-777c17 480-206 763-650 777H169v-1456h411c408 9 627 269 642 679zm-190 4c3-312-149-522-447-525H361v1141h202c308 0 473-209 469-531v-85" id="aP"/><path d="M538-131c121 0 232-49 232-156 0-50-20-88-56-117-73-60-334-92-420-143-92-55-162-110-162-238 0-190 192-317 400-317 223 0 414 129 413 338H759c0-108-110-186-227-186-119 0-215 53-215 159 0 45 18 78 53 101 76 52 331 90 416 139 98 57 169 115 169 251C955-92 760 20 538 20c-176 0-314-68-386-174-38-55-57-115-57-179h185c6 129 116 202 258 202" id="aQ"/><g id="i"><use transform="matrix(0.0087890625,0,0,0.0087890625,0,0)" xlink:href="#aP"/><use transform="matrix(0.0087890625,0,0,0.0087890625,11.8037109375,0)" xlink:href="#aw"/><use transform="matrix(0.0087890625,0,0,0.0087890625,21.5947265625,0)" xlink:href="#aB"/><use transform="matrix(0.0087890625,0,0,0.0087890625,27.474609375,0)" xlink:href="#aw"/><use transform="matrix(0.0087890625,0,0,0.0087890625,37.265625,0)" xlink:href="#aG"/><use transform="matrix(0.0087890625,0,0,0.0087890625,47.3642578125,0)" xlink:href="#aw"/><use transform="matrix(0.0087890625,0,0,0.0087890625,57.1552734375,0)" xlink:href="#aQ"/><use transform="matrix(0.0087890625,0,0,0.0087890625,66.4365234375,0)" xlink:href="#az"/></g><path d="M631-137c179 0 314-70 314-231 0-71-25-127-75-166s-141-77-272-115c-165-47-285-106-360-175s-112-154-112-255c0-245 231-397 495-397 206 0 369 89 449 218 43 68 65 142 65 223H942c0-184-129-283-321-283-172 0-299 76-301 236 0 59 26 109 76 150s135 78 256 113c205 59 345 116 436 256 35 53 50 119 50 193-2 256-231 398-507 390C333 12 90-129 80-422h193c0 187 160 285 358 285" id="aR"/><path d="M497-251l268-831h189L566 0H425L33-1082h189" id="aS"/><g id="j"><use transform="matrix(0.0087890625,0,0,0.0087890625,0,0)" xlink:href="#aR"/><use transform="matrix(0.0087890625,0,0,0.0087890625,10.6787109375,0)" xlink:href="#aM"/><use transform="matrix(0.0087890625,0,0,0.0087890625,15.046875,0)" xlink:href="#aw"/><use transform="matrix(0.0087890625,0,0,0.0087890625,24.7060546875,0)" xlink:href="#aS"/><use transform="matrix(0.0087890625,0,0,0.0087890625,33.310546875,0)" xlink:href="#az"/></g><g id="k"><use transform="matrix(0.0087890625,0,0,0.0087890625,0,0)" xlink:href="#av"/><use transform="matrix(0.0087890625,0,0,0.0087890625,15.71484375,0)" xlink:href="#aw"/><use transform="matrix(0.0087890625,0,0,0.0087890625,25.505859375,0)" xlink:href="#aQ"/><use transform="matrix(0.0087890625,0,0,0.0087890625,34.787109375,0)" xlink:href="#aB"/><use transform="matrix(0.0087890625,0,0,0.0087890625,40.6669921875,0)" xlink:href="#az"/><use transform="matrix(0.0087890625,0,0,0.0087890625,50.203125,0)" xlink:href="#aE"/></g><path d="M703-1476c426 0 599 333 586 795-11 408-187 701-584 701-422 0-587-333-587-793 0-282 106-507 280-617 89-56 190-86 305-86zm2 1333c312 0 393-279 393-632 0-308-116-536-395-536-269 0-394 232-394 523v107c-4 298 123 538 396 538" id="aT"/><g id="l"><use transform="matrix(0.0087890625,0,0,0.0087890625,0,0)" xlink:href="#aP"/><use transform="matrix(0.0087890625,0,0,0.0087890625,11.8037109375,0)" xlink:href="#aP"/><use transform="matrix(0.0087890625,0,0,0.0087890625,23.607421875,0)" xlink:href="#aT"/><use transform="matrix(0.0087890625,0,0,0.0087890625,35.982421875,0)" xlink:href="#aR"/></g><g id="m"><use transform="matrix(0.0087890625,0,0,0.0087890625,0,0)" xlink:href="#av"/><use transform="matrix(0.0087890625,0,0,0.0087890625,15.71484375,0)" xlink:href="#aD"/><use transform="matrix(0.0087890625,0,0,0.0087890625,20.0830078125,0)" xlink:href="#aB"/><use transform="matrix(0.0087890625,0,0,0.0087890625,25.962890625,0)" xlink:href="#aD"/><use transform="matrix(0.0087890625,0,0,0.0087890625,30.3310546875,0)" xlink:href="#ay"/><use transform="matrix(0.0087890625,0,0,0.0087890625,40.4296875,0)" xlink:href="#aw"/><use transform="matrix(0.0087890625,0,0,0.0087890625,50.220703125,0)" xlink:href="#aB"/><use transform="matrix(0.0087890625,0,0,0.0087890625,56.1005859375,0)" xlink:href="#aD"/><use transform="matrix(0.0087890625,0,0,0.0087890625,60.46875,0)" xlink:href="#aO"/><use transform="matrix(0.0087890625,0,0,0.0087890625,70.734375,0)" xlink:href="#ax"/></g><path d="M972-643H361V0H169v-1456h902v158H361v498h611v157" id="aU"/><path d="M1098-255l208-827h185L1176 0h-150L763-820 507 0H357L43-1082h184l213 810 252-810h149" id="aV"/><g id="n"><use transform="matrix(0.0087890625,0,0,0.0087890625,0,0)" xlink:href="#aU"/><use transform="matrix(0.0087890625,0,0,0.0087890625,9.94921875,0)" xlink:href="#aD"/><use transform="matrix(0.0087890625,0,0,0.0087890625,14.3173828125,0)" xlink:href="#aE"/><use transform="matrix(0.0087890625,0,0,0.0087890625,20.2412109375,0)" xlink:href="#az"/><use transform="matrix(0.0087890625,0,0,0.0087890625,29.77734375,0)" xlink:href="#aV"/><use transform="matrix(0.0087890625,0,0,0.0087890625,43.3037109375,0)" xlink:href="#aw"/><use transform="matrix(0.0087890625,0,0,0.0087890625,53.0947265625,0)" xlink:href="#aM"/><use transform="matrix(0.0087890625,0,0,0.0087890625,57.462890625,0)" xlink:href="#aM"/><use transform="matrix(0.0087890625,0,0,0.0087890625,61.8310546875,0)" xlink:href="#aQ"/></g><g id="o"><use transform="matrix(0.0087890625,0,0,0.0087890625,0,0)" xlink:href="#aG"/><use transform="matrix(0.0087890625,0,0,0.0087890625,10.0986328125,0)" xlink:href="#az"/><use transform="matrix(0.0087890625,0,0,0.0087890625,19.634765625,0)" xlink:href="#aB"/><use transform="matrix(0.0087890625,0,0,0.0087890625,25.5146484375,0)" xlink:href="#aV"/><use transform="matrix(0.0087890625,0,0,0.0087890625,39.041015625,0)" xlink:href="#az"/><use transform="matrix(0.0087890625,0,0,0.0087890625,48.5771484375,0)" xlink:href="#az"/><use transform="matrix(0.0087890625,0,0,0.0087890625,58.11328125,0)" xlink:href="#ax"/></g><path d="M494-271l252-811h198L509 167C425 381 299 474 84 421V271c167 16 242-37 283-173l41-110L22-1082h202" id="aW"/><g id="p"><use transform="matrix(0.0087890625,0,0,0.0087890625,0,0)" xlink:href="#az"/><use transform="matrix(0.0087890625,0,0,0.0087890625,9.421875,0)" xlink:href="#aS"/><use transform="matrix(0.0087890625,0,0,0.0087890625,18.0263671875,0)" xlink:href="#az"/><use transform="matrix(0.0087890625,0,0,0.0087890625,27.5625,0)" xlink:href="#aE"/><use transform="matrix(0.0087890625,0,0,0.0087890625,33.8115234375,0)" xlink:href="#aW"/></g><g id="q"><use transform="matrix(0.0087890625,0,0,0.0087890625,0,0)" xlink:href="#aC"/><use transform="matrix(0.0087890625,0,0,0.0087890625,10.740234375,0)" xlink:href="#aD"/><use transform="matrix(0.0087890625,0,0,0.0087890625,15.1083984375,0)" xlink:href="#az"/><use transform="matrix(0.0087890625,0,0,0.0087890625,24.64453125,0)" xlink:href="#aE"/></g><path d="M589-945c-131 0-219 81-264 174V0H140v-1536h185v585c82-101 189-151 320-151 229 0 346 129 346 387V0H806v-716c-2-153-65-229-217-229" id="aX"/><g id="r"><use transform="matrix(0.0087890625,0,0,0.0087890625,0,0)" xlink:href="#aV"/><use transform="matrix(0.0087890625,0,0,0.0087890625,13.5263671875,0)" xlink:href="#aD"/><use transform="matrix(0.0087890625,0,0,0.0087890625,17.89453125,0)" xlink:href="#aB"/><use transform="matrix(0.0087890625,0,0,0.0087890625,23.7744140625,0)" xlink:href="#aX"/></g><path d="M1288 0h-193L362-1122V0H169v-1456h193l735 1127v-1127h191V0" id="aY"/><path d="M442-501L326-380V0H141v-1536h185v929c135-169 291-317 436-475h225L566-630 1036 0H819" id="aZ"/><g id="s"><use transform="matrix(0.0087890625,0,0,0.0087890625,0,0)" xlink:href="#aY"/><use transform="matrix(0.0087890625,0,0,0.0087890625,12.83203125,0)" xlink:href="#az"/><use transform="matrix(0.0087890625,0,0,0.0087890625,22.3681640625,0)" xlink:href="#aB"/><use transform="matrix(0.0087890625,0,0,0.0087890625,28.248046875,0)" xlink:href="#aV"/><use transform="matrix(0.0087890625,0,0,0.0087890625,41.7744140625,0)" xlink:href="#aO"/><use transform="matrix(0.0087890625,0,0,0.0087890625,52.0400390625,0)" xlink:href="#aE"/><use transform="matrix(0.0087890625,0,0,0.0087890625,58.130859375,0)" xlink:href="#aZ"/></g><path d="M491 20c-241-1-355-148-355-398v-704h185v699c0 164 67 246 200 246 141 0 235-53 282-158v-787h185V0H812l-4-107C736-22 630 20 491 20" id="ba"/><g id="t"><use transform="matrix(0.0087890625,0,0,0.0087890625,0,0)" xlink:href="#aJ"/><use transform="matrix(0.0087890625,0,0,0.0087890625,4.8955078125,0)" xlink:href="#ax"/><use transform="matrix(0.0087890625,0,0,0.0087890625,14.8271484375,0)" xlink:href="#aB"/><use transform="matrix(0.0087890625,0,0,0.0087890625,20.70703125,0)" xlink:href="#aE"/><use transform="matrix(0.0087890625,0,0,0.0087890625,26.7978515625,0)" xlink:href="#ba"/><use transform="matrix(0.0087890625,0,0,0.0087890625,36.720703125,0)" xlink:href="#aQ"/><use transform="matrix(0.0087890625,0,0,0.0087890625,46.001953125,0)" xlink:href="#aD"/><use transform="matrix(0.0087890625,0,0,0.0087890625,50.3701171875,0)" xlink:href="#aO"/><use transform="matrix(0.0087890625,0,0,0.0087890625,60.6357421875,0)" xlink:href="#ax"/></g><path d="M177 125H18l608-1581h158" id="bb"/><path d="M1216-1011c-1 297-202 441-512 441H361V0H169v-1456h537c297-6 510 164 510 445zm-192 2c1-178-126-288-307-289H361v571h345c196 1 318-92 318-282" id="bc"/><g id="u"><use transform="matrix(0.0087890625,0,0,0.0087890625,0,0)" xlink:href="#aP"/><use transform="matrix(0.0087890625,0,0,0.0087890625,11.8037109375,0)" xlink:href="#az"/><use transform="matrix(0.0087890625,0,0,0.0087890625,21.33984375,0)" xlink:href="#aB"/><use transform="matrix(0.0087890625,0,0,0.0087890625,27.2197265625,0)" xlink:href="#az"/><use transform="matrix(0.0087890625,0,0,0.0087890625,36.755859375,0)" xlink:href="#aN"/><use transform="matrix(0.0087890625,0,0,0.0087890625,46.177734375,0)" xlink:href="#aB"/><use transform="matrix(0.0087890625,0,0,0.0087890625,52.0576171875,0)" xlink:href="#aD"/><use transform="matrix(0.0087890625,0,0,0.0087890625,56.42578125,0)" xlink:href="#aO"/><use transform="matrix(0.0087890625,0,0,0.0087890625,66.69140625,0)" xlink:href="#ax"/><use transform="matrix(0.0087890625,0,0,0.0087890625,76.623046875,0)" xlink:href="#bb"/><use transform="matrix(0.0087890625,0,0,0.0087890625,84.041015625,0)" xlink:href="#bc"/><use transform="matrix(0.0087890625,0,0,0.0087890625,95.396484375,0)" xlink:href="#aE"/><use transform="matrix(0.0087890625,0,0,0.0087890625,101.3203125,0)" xlink:href="#az"/><use transform="matrix(0.0087890625,0,0,0.0087890625,110.7421875,0)" xlink:href="#aS"/><use transform="matrix(0.0087890625,0,0,0.0087890625,119.3466796875,0)" xlink:href="#az"/><use transform="matrix(0.0087890625,0,0,0.0087890625,128.8828125,0)" xlink:href="#ax"/><use transform="matrix(0.0087890625,0,0,0.0087890625,138.814453125,0)" xlink:href="#aB"/><use transform="matrix(0.0087890625,0,0,0.0087890625,144.6943359375,0)" xlink:href="#aD"/><use transform="matrix(0.0087890625,0,0,0.0087890625,149.0625,0)" xlink:href="#aO"/><use transform="matrix(0.0087890625,0,0,0.0087890625,159.328125,0)" xlink:href="#ax"/></g><g id="v"><use transform="matrix(0.0087890625,0,0,0.0087890625,0,0)" xlink:href="#aK"/><use transform="matrix(0.0087890625,0,0,0.0087890625,11.7421875,0)" xlink:href="#aL"/><use transform="matrix(0.0087890625,0,0,0.0087890625,21.8408203125,0)" xlink:href="#aL"/><use transform="matrix(0.0087890625,0,0,0.0087890625,31.939453125,0)" xlink:href="#aM"/><use transform="matrix(0.0087890625,0,0,0.0087890625,36.3076171875,0)" xlink:href="#aD"/><use transform="matrix(0.0087890625,0,0,0.0087890625,40.67578125,0)" xlink:href="#aN"/><use transform="matrix(0.0087890625,0,0,0.0087890625,50.09765625,0)" xlink:href="#aw"/><use transform="matrix(0.0087890625,0,0,0.0087890625,59.888671875,0)" xlink:href="#aB"/><use transform="matrix(0.0087890625,0,0,0.0087890625,65.7685546875,0)" xlink:href="#aD"/><use transform="matrix(0.0087890625,0,0,0.0087890625,70.13671875,0)" xlink:href="#aO"/><use transform="matrix(0.0087890625,0,0,0.0087890625,80.40234375,0)" xlink:href="#ax"/></g><g id="w"><use transform="matrix(0.0087890625,0,0,0.0087890625,0,0)" xlink:href="#aU"/><use transform="matrix(0.0087890625,0,0,0.0087890625,9.94921875,0)" xlink:href="#aD"/><use transform="matrix(0.0087890625,0,0,0.0087890625,14.3173828125,0)" xlink:href="#aE"/><use transform="matrix(0.0087890625,0,0,0.0087890625,20.2412109375,0)" xlink:href="#az"/><use transform="matrix(0.0087890625,0,0,0.0087890625,29.77734375,0)" xlink:href="#aV"/><use transform="matrix(0.0087890625,0,0,0.0087890625,43.3037109375,0)" xlink:href="#aw"/><use transform="matrix(0.0087890625,0,0,0.0087890625,53.0947265625,0)" xlink:href="#aM"/><use transform="matrix(0.0087890625,0,0,0.0087890625,57.462890625,0)" xlink:href="#aM"/></g><g id="x"><use transform="matrix(0.0087890625,0,0,0.0087890625,0,0)" xlink:href="#aP"/><use transform="matrix(0.0087890625,0,0,0.0087890625,11.8037109375,0)" xlink:href="#aw"/><use transform="matrix(0.0087890625,0,0,0.0087890625,21.5947265625,0)" xlink:href="#aB"/><use transform="matrix(0.0087890625,0,0,0.0087890625,27.474609375,0)" xlink:href="#aw"/></g><g id="y"><use transform="matrix(0.0087890625,0,0,0.0087890625,0,0)" xlink:href="#aw"/><use transform="matrix(0.0087890625,0,0,0.0087890625,9.791015625,0)" xlink:href="#aB"/></g><path d="M1161-1018c0 201-122 330-278 388l342 618V0h-206L703-589H361V0H168v-1456h482c310-2 511 139 511 438zm-193 0c0-187-120-280-313-280H361v552h295c179 3 313-101 312-272" id="bd"/><g id="z"><use transform="matrix(0.0087890625,0,0,0.0087890625,0,0)" xlink:href="#bd"/><use transform="matrix(0.0087890625,0,0,0.0087890625,11.0830078125,0)" xlink:href="#az"/><use transform="matrix(0.0087890625,0,0,0.0087890625,20.619140625,0)" xlink:href="#aQ"/><use transform="matrix(0.0087890625,0,0,0.0087890625,29.900390625,0)" xlink:href="#aB"/></g><path d="M992-673H361v516h733V0H169v-1456h915v158H361v468h631v157" id="be"/><g id="A"><use transform="matrix(0.0087890625,0,0,0.0087890625,0,0)" xlink:href="#be"/><use transform="matrix(0.0087890625,0,0,0.0087890625,10.23046875,0)" xlink:href="#ax"/><use transform="matrix(0.0087890625,0,0,0.0087890625,20.162109375,0)" xlink:href="#aN"/><use transform="matrix(0.0087890625,0,0,0.0087890625,29.583984375,0)" xlink:href="#aE"/><use transform="matrix(0.0087890625,0,0,0.0087890625,35.8330078125,0)" xlink:href="#aW"/><use transform="matrix(0.0087890625,0,0,0.0087890625,44.349609375,0)" xlink:href="#aL"/><use transform="matrix(0.0087890625,0,0,0.0087890625,54.4482421875,0)" xlink:href="#aB"/><use transform="matrix(0.0087890625,0,0,0.0087890625,60.328125,0)" xlink:href="#aD"/><use transform="matrix(0.0087890625,0,0,0.0087890625,64.6962890625,0)" xlink:href="#aO"/><use transform="matrix(0.0087890625,0,0,0.0087890625,74.9619140625,0)" xlink:href="#ax"/></g><g id="B"><use transform="matrix(0.0087890625,0,0,0.0087890625,0,0)" xlink:href="#aD"/><use transform="matrix(0.0087890625,0,0,0.0087890625,4.3681640625,0)" xlink:href="#ax"/></g><g id="C"><use transform="matrix(0.0087890625,0,0,0.0087890625,0,0)" xlink:href="#aC"/><use transform="matrix(0.0087890625,0,0,0.0087890625,10.0810546875,0)" xlink:href="#aE"/><use transform="matrix(0.0087890625,0,0,0.0087890625,15.8203125,0)" xlink:href="#aw"/><use transform="matrix(0.0087890625,0,0,0.0087890625,25.611328125,0)" xlink:href="#ax"/><use transform="matrix(0.0087890625,0,0,0.0087890625,35.54296875,0)" xlink:href="#aQ"/><use transform="matrix(0.0087890625,0,0,0.0087890625,44.82421875,0)" xlink:href="#aD"/><use transform="matrix(0.0087890625,0,0,0.0087890625,49.1923828125,0)" xlink:href="#aB"/></g><path d="M525-543H37v-151h488v151" id="bf"/><g id="D"><use transform="matrix(0.0087890625,0,0,0.0087890625,0,0)" xlink:href="#aK"/><use transform="matrix(0.0087890625,0,0,0.0087890625,11.7421875,0)" xlink:href="#ax"/><use transform="matrix(0.0087890625,0,0,0.0087890625,21.673828125,0)" xlink:href="#aB"/><use transform="matrix(0.0087890625,0,0,0.0087890625,27.5537109375,0)" xlink:href="#aD"/><use transform="matrix(0.0087890625,0,0,0.0087890625,31.921875,0)" xlink:href="#bf"/><use transform="matrix(0.0087890625,0,0,0.0087890625,36.8876953125,0)" xlink:href="#av"/><use transform="matrix(0.0087890625,0,0,0.0087890625,52.6025390625,0)" xlink:href="#aw"/><use transform="matrix(0.0087890625,0,0,0.0087890625,62.3935546875,0)" xlink:href="#aM"/><use transform="matrix(0.0087890625,0,0,0.0087890625,66.76171875,0)" xlink:href="#aV"/><use transform="matrix(0.0087890625,0,0,0.0087890625,80.2880859375,0)" xlink:href="#aw"/><use transform="matrix(0.0087890625,0,0,0.0087890625,90.0791015625,0)" xlink:href="#aE"/><use transform="matrix(0.0087890625,0,0,0.0087890625,96.0029296875,0)" xlink:href="#az"/></g><g id="E"><use transform="matrix(0.0087890625,0,0,0.0087890625,0,0)" xlink:href="#aR"/><use transform="matrix(0.0087890625,0,0,0.0087890625,10.6787109375,0)" xlink:href="#aO"/><use transform="matrix(0.0087890625,0,0,0.0087890625,20.9443359375,0)" xlink:href="#aM"/><use transform="matrix(0.0087890625,0,0,0.0087890625,25.3125,0)" xlink:href="#ba"/><use transform="matrix(0.0087890625,0,0,0.0087890625,35.2353515625,0)" xlink:href="#aB"/><use transform="matrix(0.0087890625,0,0,0.0087890625,41.115234375,0)" xlink:href="#aD"/><use transform="matrix(0.0087890625,0,0,0.0087890625,45.4833984375,0)" xlink:href="#aO"/><use transform="matrix(0.0087890625,0,0,0.0087890625,55.7490234375,0)" xlink:href="#ax"/></g><path d="M520 20C244 20 95-247 95-550c0-298 151-550 427-552 127 0 227 43 301 130v-564h185V0H838l-9-116C755-25 652 20 520 20zm48-965c-210 0-288 177-288 416 0 218 87 392 286 392 117 0 203-53 257-158v-497c-55-102-140-153-255-153" id="bg"/><g id="F"><use transform="matrix(0.0087890625,0,0,0.0087890625,0,0)" xlink:href="#aK"/><use transform="matrix(0.0087890625,0,0,0.0087890625,11.7421875,0)" xlink:href="#ay"/><use transform="matrix(0.0087890625,0,0,0.0087890625,21.8408203125,0)" xlink:href="#ay"/><use transform="matrix(0.0087890625,0,0,0.0087890625,31.939453125,0)" xlink:href="#aE"/><use transform="matrix(0.0087890625,0,0,0.0087890625,37.86328125,0)" xlink:href="#az"/><use transform="matrix(0.0087890625,0,0,0.0087890625,47.3994140625,0)" xlink:href="#ay"/><use transform="matrix(0.0087890625,0,0,0.0087890625,57.498046875,0)" xlink:href="#aw"/><use transform="matrix(0.0087890625,0,0,0.0087890625,67.2890625,0)" xlink:href="#aB"/><use transform="matrix(0.0087890625,0,0,0.0087890625,73.1689453125,0)" xlink:href="#az"/><use transform="matrix(0.0087890625,0,0,0.0087890625,82.705078125,0)" xlink:href="#bg"/></g><g id="G"><use transform="matrix(0.0087890625,0,0,0.0087890625,0,0)" xlink:href="#aH"/><use transform="matrix(0.0087890625,0,0,0.0087890625,9.685546875,0)" xlink:href="#aO"/><use transform="matrix(0.0087890625,0,0,0.0087890625,19.951171875,0)" xlink:href="#ay"/><use transform="matrix(0.0087890625,0,0,0.0087890625,30.0498046875,0)" xlink:href="#ay"/><use transform="matrix(0.0087890625,0,0,0.0087890625,40.1484375,0)" xlink:href="#aD"/><use transform="matrix(0.0087890625,0,0,0.0087890625,44.5166015625,0)" xlink:href="#ax"/><use transform="matrix(0.0087890625,0,0,0.0087890625,54.4482421875,0)" xlink:href="#ay"/></g><g id="H"><use transform="matrix(0.0087890625,0,0,0.0087890625,0,0)" xlink:href="#aR"/><use transform="matrix(0.0087890625,0,0,0.0087890625,10.6787109375,0)" xlink:href="#az"/><use transform="matrix(0.0087890625,0,0,0.0087890625,20.21484375,0)" xlink:href="#aN"/><use transform="matrix(0.0087890625,0,0,0.0087890625,29.63671875,0)" xlink:href="#ba"/><use transform="matrix(0.0087890625,0,0,0.0087890625,39.5595703125,0)" xlink:href="#aE"/><use transform="matrix(0.0087890625,0,0,0.0087890625,45.650390625,0)" xlink:href="#aD"/><use transform="matrix(0.0087890625,0,0,0.0087890625,50.0185546875,0)" xlink:href="#aB"/><use transform="matrix(0.0087890625,0,0,0.0087890625,55.8984375,0)" xlink:href="#aW"/></g><path d="M704-1390c-164-38-297 28-288 194v114h231v143H416V0H231v-939H60v-143h171v-111c-12-274 208-416 483-347" id="bh"/><g id="I"><use transform="matrix(0.0087890625,0,0,0.0087890625,0,0)" xlink:href="#aJ"/><use transform="matrix(0.0087890625,0,0,0.0087890625,4.8955078125,0)" xlink:href="#ax"/><use transform="matrix(0.0087890625,0,0,0.0087890625,14.8271484375,0)" xlink:href="#bh"/><use transform="matrix(0.0087890625,0,0,0.0087890625,21.076171875,0)" xlink:href="#aO"/><use transform="matrix(0.0087890625,0,0,0.0087890625,31.341796875,0)" xlink:href="#aE"/><use transform="matrix(0.0087890625,0,0,0.0087890625,37.4326171875,0)" xlink:href="#aA"/><use transform="matrix(0.0087890625,0,0,0.0087890625,53.208984375,0)" xlink:href="#aw"/><use transform="matrix(0.0087890625,0,0,0.0087890625,63,0)" xlink:href="#aB"/><use transform="matrix(0.0087890625,0,0,0.0087890625,68.8798828125,0)" xlink:href="#aD"/><use transform="matrix(0.0087890625,0,0,0.0087890625,73.248046875,0)" xlink:href="#aO"/><use transform="matrix(0.0087890625,0,0,0.0087890625,83.513671875,0)" xlink:href="#ax"/></g><g id="J"><use transform="matrix(0.0087890625,0,0,0.0087890625,0,0)" xlink:href="#aw"/><use transform="matrix(0.0087890625,0,0,0.0087890625,9.791015625,0)" xlink:href="#ax"/><use transform="matrix(0.0087890625,0,0,0.0087890625,19.72265625,0)" xlink:href="#bg"/></g><g id="K"><use transform="matrix(0.0087890625,0,0,0.0087890625,0,0)" xlink:href="#be"/><use transform="matrix(0.0087890625,0,0,0.0087890625,10.001953125,0)" xlink:href="#aS"/><use transform="matrix(0.0087890625,0,0,0.0087890625,18.6064453125,0)" xlink:href="#az"/><use transform="matrix(0.0087890625,0,0,0.0087890625,28.142578125,0)" xlink:href="#ax"/><use transform="matrix(0.0087890625,0,0,0.0087890625,38.07421875,0)" xlink:href="#aB"/></g><g id="L"><use transform="matrix(0.0087890625,0,0,0.0087890625,0,0)" xlink:href="#av"/><use transform="matrix(0.0087890625,0,0,0.0087890625,15.71484375,0)" xlink:href="#aw"/><use transform="matrix(0.0087890625,0,0,0.0087890625,25.505859375,0)" xlink:href="#ax"/><use transform="matrix(0.0087890625,0,0,0.0087890625,35.4375,0)" xlink:href="#aw"/><use transform="matrix(0.0087890625,0,0,0.0087890625,45.228515625,0)" xlink:href="#ay"/><use transform="matrix(0.0087890625,0,0,0.0087890625,55.3271484375,0)" xlink:href="#az"/><use transform="matrix(0.0087890625,0,0,0.0087890625,64.86328125,0)" xlink:href="#aA"/><use transform="matrix(0.0087890625,0,0,0.0087890625,80.6396484375,0)" xlink:href="#az"/><use transform="matrix(0.0087890625,0,0,0.0087890625,90.17578125,0)" xlink:href="#ax"/><use transform="matrix(0.0087890625,0,0,0.0087890625,100.107421875,0)" xlink:href="#aB"/></g><g id="M"><use transform="matrix(0.0087890625,0,0,0.0087890625,0,0)" xlink:href="#bc"/><use transform="matrix(0.0087890625,0,0,0.0087890625,11.35546875,0)" xlink:href="#aE"/><use transform="matrix(0.0087890625,0,0,0.0087890625,17.4462890625,0)" xlink:href="#aD"/><use transform="matrix(0.0087890625,0,0,0.0087890625,21.814453125,0)" xlink:href="#aS"/><use transform="matrix(0.0087890625,0,0,0.0087890625,30.533203125,0)" xlink:href="#aD"/><use transform="matrix(0.0087890625,0,0,0.0087890625,34.9013671875,0)" xlink:href="#aM"/><use transform="matrix(0.0087890625,0,0,0.0087890625,39.26953125,0)" xlink:href="#az"/><use transform="matrix(0.0087890625,0,0,0.0087890625,48.8056640625,0)" xlink:href="#ay"/><use transform="matrix(0.0087890625,0,0,0.0087890625,58.904296875,0)" xlink:href="#az"/><use transform="matrix(0.0087890625,0,0,0.0087890625,68.4404296875,0)" xlink:href="#bg"/></g><g id="N"><use transform="matrix(0.0087890625,0,0,0.0087890625,0,0)" xlink:href="#aJ"/><use transform="matrix(0.0087890625,0,0,0.0087890625,4.8955078125,0)" xlink:href="#bg"/><use transform="matrix(0.0087890625,0,0,0.0087890625,15.046875,0)" xlink:href="#az"/><use transform="matrix(0.0087890625,0,0,0.0087890625,24.5830078125,0)" xlink:href="#ax"/><use transform="matrix(0.0087890625,0,0,0.0087890625,34.5146484375,0)" xlink:href="#aB"/><use transform="matrix(0.0087890625,0,0,0.0087890625,40.39453125,0)" xlink:href="#aD"/><use transform="matrix(0.0087890625,0,0,0.0087890625,44.7626953125,0)" xlink:href="#aB"/><use transform="matrix(0.0087890625,0,0,0.0087890625,50.642578125,0)" xlink:href="#aW"/><use transform="matrix(0.0087890625,0,0,0.0087890625,59.1591796875,0)" xlink:href="#bb"/><use transform="matrix(0.0087890625,0,0,0.0087890625,66.5771484375,0)" xlink:href="#aK"/><use transform="matrix(0.0087890625,0,0,0.0087890625,78.3193359375,0)" xlink:href="#aN"/><use transform="matrix(0.0087890625,0,0,0.0087890625,87.7412109375,0)" xlink:href="#aN"/><use transform="matrix(0.0087890625,0,0,0.0087890625,97.1630859375,0)" xlink:href="#az"/><use transform="matrix(0.0087890625,0,0,0.0087890625,106.69921875,0)" xlink:href="#aQ"/><use transform="matrix(0.0087890625,0,0,0.0087890625,115.98046875,0)" xlink:href="#aQ"/></g><g id="O"><use transform="matrix(0.0087890625,0,0,0.0087890625,0,0)" xlink:href="#av"/><use transform="matrix(0.0087890625,0,0,0.0087890625,15.71484375,0)" xlink:href="#aw"/><use transform="matrix(0.0087890625,0,0,0.0087890625,25.505859375,0)" xlink:href="#ax"/><use transform="matrix(0.0087890625,0,0,0.0087890625,35.4375,0)" xlink:href="#aw"/><use transform="matrix(0.0087890625,0,0,0.0087890625,45.228515625,0)" xlink:href="#ay"/><use transform="matrix(0.0087890625,0,0,0.0087890625,55.3271484375,0)" xlink:href="#az"/><use transform="matrix(0.0087890625,0,0,0.0087890625,64.86328125,0)" xlink:href="#aA"/><use transform="matrix(0.0087890625,0,0,0.0087890625,80.6396484375,0)" xlink:href="#az"/><use transform="matrix(0.0087890625,0,0,0.0087890625,90.17578125,0)" xlink:href="#ax"/><use transform="matrix(0.0087890625,0,0,0.0087890625,100.107421875,0)" xlink:href="#aB"/></g><g id="P"><use transform="matrix(0.0087890625,0,0,0.0087890625,0,0)" xlink:href="#aR"/><use transform="matrix(0.0087890625,0,0,0.0087890625,10.6787109375,0)" xlink:href="#aO"/><use transform="matrix(0.0087890625,0,0,0.0087890625,20.9443359375,0)" xlink:href="#aM"/><use transform="matrix(0.0087890625,0,0,0.0087890625,25.3125,0)" xlink:href="#ba"/><use transform="matrix(0.0087890625,0,0,0.0087890625,35.2353515625,0)" xlink:href="#aB"/><use transform="matrix(0.0087890625,0,0,0.0087890625,41.115234375,0)" xlink:href="#aD"/><use transform="matrix(0.0087890625,0,0,0.0087890625,45.4833984375,0)" xlink:href="#aO"/><use transform="matrix(0.0087890625,0,0,0.0087890625,55.7490234375,0)" xlink:href="#ax"/></g><g id="Q"><use transform="matrix(0.0087890625,0,0,0.0087890625,0,0)" xlink:href="#aV"/><use transform="matrix(0.0087890625,0,0,0.0087890625,13.5263671875,0)" xlink:href="#aD"/><use transform="matrix(0.0087890625,0,0,0.0087890625,17.89453125,0)" xlink:href="#aB"/><use transform="matrix(0.0087890625,0,0,0.0087890625,23.7744140625,0)" xlink:href="#aX"/></g><g id="R"><use transform="matrix(0.0087890625,0,0,0.0087890625,0,0)" xlink:href="#av"/><use transform="matrix(0.0087890625,0,0,0.0087890625,15.71484375,0)" xlink:href="#ba"/><use transform="matrix(0.0087890625,0,0,0.0087890625,25.6376953125,0)" xlink:href="#aM"/><use transform="matrix(0.0087890625,0,0,0.0087890625,30.005859375,0)" xlink:href="#aB"/><use transform="matrix(0.0087890625,0,0,0.0087890625,35.8857421875,0)" xlink:href="#aD"/><use transform="matrix(0.0087890625,0,0,0.0087890625,40.25390625,0)" xlink:href="#bf"/><use transform="matrix(0.0087890625,0,0,0.0087890625,45.2197265625,0)" xlink:href="#aU"/><use transform="matrix(0.0087890625,0,0,0.0087890625,54.8701171875,0)" xlink:href="#aw"/><use transform="matrix(0.0087890625,0,0,0.0087890625,64.6611328125,0)" xlink:href="#aN"/><use transform="matrix(0.0087890625,0,0,0.0087890625,74.0830078125,0)" xlink:href="#aB"/><use transform="matrix(0.0087890625,0,0,0.0087890625,79.787109375,0)" xlink:href="#aO"/><use transform="matrix(0.0087890625,0,0,0.0087890625,90.052734375,0)" xlink:href="#aE"/></g><g id="S"><use transform="matrix(0.0087890625,0,0,0.0087890625,0,0)" xlink:href="#aK"/><use transform="matrix(0.0087890625,0,0,0.0087890625,11.7421875,0)" xlink:href="#ba"/><use transform="matrix(0.0087890625,0,0,0.0087890625,21.6650390625,0)" xlink:href="#aB"/><use transform="matrix(0.0087890625,0,0,0.0087890625,27.544921875,0)" xlink:href="#aX"/><use transform="matrix(0.0087890625,0,0,0.0087890625,37.458984375,0)" xlink:href="#az"/><use transform="matrix(0.0087890625,0,0,0.0087890625,46.9951171875,0)" xlink:href="#ax"/><use transform="matrix(0.0087890625,0,0,0.0087890625,56.9267578125,0)" xlink:href="#aB"/><use transform="matrix(0.0087890625,0,0,0.0087890625,62.806640625,0)" xlink:href="#aD"/><use transform="matrix(0.0087890625,0,0,0.0087890625,67.1748046875,0)" xlink:href="#aN"/><use transform="matrix(0.0087890625,0,0,0.0087890625,76.5966796875,0)" xlink:href="#aw"/><use transform="matrix(0.0087890625,0,0,0.0087890625,86.3876953125,0)" xlink:href="#aB"/><use transform="matrix(0.0087890625,0,0,0.0087890625,92.267578125,0)" xlink:href="#aD"/><use transform="matrix(0.0087890625,0,0,0.0087890625,96.6357421875,0)" xlink:href="#aO"/><use transform="matrix(0.0087890625,0,0,0.0087890625,106.9013671875,0)" xlink:href="#ax"/></g><g id="T"><use transform="matrix(0.0087890625,0,0,0.0087890625,0,0)" xlink:href="#aK"/><use transform="matrix(0.0087890625,0,0,0.0087890625,11.7421875,0)" xlink:href="#ba"/><use transform="matrix(0.0087890625,0,0,0.0087890625,21.6650390625,0)" xlink:href="#bg"/><use transform="matrix(0.0087890625,0,0,0.0087890625,31.81640625,0)" xlink:href="#aD"/><use transform="matrix(0.0087890625,0,0,0.0087890625,36.1845703125,0)" xlink:href="#aB"/></g><g id="U"><use transform="matrix(0.0087890625,0,0,0.0087890625,0,0)" xlink:href="#aH"/><use transform="matrix(0.0087890625,0,0,0.0087890625,9.685546875,0)" xlink:href="#aO"/><use transform="matrix(0.0087890625,0,0,0.0087890625,19.951171875,0)" xlink:href="#ay"/><use transform="matrix(0.0087890625,0,0,0.0087890625,30.0498046875,0)" xlink:href="#ay"/><use transform="matrix(0.0087890625,0,0,0.0087890625,40.1484375,0)" xlink:href="#aD"/><use transform="matrix(0.0087890625,0,0,0.0087890625,44.5166015625,0)" xlink:href="#ax"/><use transform="matrix(0.0087890625,0,0,0.0087890625,54.4482421875,0)" xlink:href="#ay"/></g><g id="V"><use transform="matrix(0.0087890625,0,0,0.0087890625,0,0)" xlink:href="#bc"/><use transform="matrix(0.0087890625,0,0,0.0087890625,11.35546875,0)" xlink:href="#ba"/><use transform="matrix(0.0087890625,0,0,0.0087890625,21.2783203125,0)" xlink:href="#aG"/><use transform="matrix(0.0087890625,0,0,0.0087890625,31.376953125,0)" xlink:href="#aM"/><use transform="matrix(0.0087890625,0,0,0.0087890625,35.7451171875,0)" xlink:href="#aD"/><use transform="matrix(0.0087890625,0,0,0.0087890625,40.11328125,0)" xlink:href="#aN"/></g><path d="M539-677L361-492V0H169v-1456h192v720l647-720h232L667-813 1285 0h-230" id="bi"/><g id="W"><use transform="matrix(0.0087890625,0,0,0.0087890625,0,0)" xlink:href="#bi"/><use transform="matrix(0.0087890625,0,0,0.0087890625,11.056640625,0)" xlink:href="#az"/><use transform="matrix(0.0087890625,0,0,0.0087890625,20.478515625,0)" xlink:href="#aW"/></g><g id="X"><use transform="matrix(0.0087890625,0,0,0.0087890625,0,0)" xlink:href="#aJ"/><use transform="matrix(0.0087890625,0,0,0.0087890625,4.8955078125,0)" xlink:href="#ax"/><use transform="matrix(0.0087890625,0,0,0.0087890625,14.8271484375,0)" xlink:href="#bh"/><use transform="matrix(0.0087890625,0,0,0.0087890625,21.076171875,0)" xlink:href="#aE"/><use transform="matrix(0.0087890625,0,0,0.0087890625,26.8154296875,0)" xlink:href="#aw"/><use transform="matrix(0.0087890625,0,0,0.0087890625,36.6064453125,0)" xlink:href="#aQ"/><use transform="matrix(0.0087890625,0,0,0.0087890625,45.8876953125,0)" xlink:href="#aB"/><use transform="matrix(0.0087890625,0,0,0.0087890625,51.767578125,0)" xlink:href="#aE"/><use transform="matrix(0.0087890625,0,0,0.0087890625,57.8583984375,0)" xlink:href="#ba"/><use transform="matrix(0.0087890625,0,0,0.0087890625,67.78125,0)" xlink:href="#aN"/><use transform="matrix(0.0087890625,0,0,0.0087890625,77.203125,0)" xlink:href="#aB"/><use transform="matrix(0.0087890625,0,0,0.0087890625,83.0830078125,0)" xlink:href="#ba"/><use transform="matrix(0.0087890625,0,0,0.0087890625,93.005859375,0)" xlink:href="#aE"/><use transform="matrix(0.0087890625,0,0,0.0087890625,98.9296875,0)" xlink:href="#az"/></g><g id="Y"><use transform="matrix(0.0087890625,0,0,0.0087890625,0,0)" xlink:href="#aR"/><use transform="matrix(0.0087890625,0,0,0.0087890625,10.6787109375,0)" xlink:href="#az"/><use transform="matrix(0.0087890625,0,0,0.0087890625,20.21484375,0)" xlink:href="#aN"/><use transform="matrix(0.0087890625,0,0,0.0087890625,29.63671875,0)" xlink:href="#aE"/><use transform="matrix(0.0087890625,0,0,0.0087890625,35.560546875,0)" xlink:href="#az"/><use transform="matrix(0.0087890625,0,0,0.0087890625,45.0966796875,0)" xlink:href="#aB"/><use transform="matrix(0.0087890625,0,0,0.0087890625,50.9765625,0)" xlink:href="#aQ"/></g><g id="Z"><use transform="matrix(0.0087890625,0,0,0.0087890625,0,0)" xlink:href="#aR"/><use transform="matrix(0.0087890625,0,0,0.0087890625,10.6787109375,0)" xlink:href="#aB"/><use transform="matrix(0.0087890625,0,0,0.0087890625,16.3828125,0)" xlink:href="#aO"/><use transform="matrix(0.0087890625,0,0,0.0087890625,26.6484375,0)" xlink:href="#aE"/><use transform="matrix(0.0087890625,0,0,0.0087890625,32.3876953125,0)" xlink:href="#aw"/><use transform="matrix(0.0087890625,0,0,0.0087890625,42.1787109375,0)" xlink:href="#ay"/><use transform="matrix(0.0087890625,0,0,0.0087890625,52.27734375,0)" xlink:href="#az"/></g><g id="aa"><use transform="matrix(0.0087890625,0,0,0.0087890625,0,0)" xlink:href="#be"/><use transform="matrix(0.0087890625,0,0,0.0087890625,10.0634765625,0)" xlink:href="#bg"/><use transform="matrix(0.0087890625,0,0,0.0087890625,20.21484375,0)" xlink:href="#ay"/><use transform="matrix(0.0087890625,0,0,0.0087890625,30.3134765625,0)" xlink:href="#az"/></g><g id="ab"><use transform="matrix(0.0087890625,0,0,0.0087890625,0,0)" xlink:href="#aU"/><use transform="matrix(0.0087890625,0,0,0.0087890625,9.94921875,0)" xlink:href="#aD"/><use transform="matrix(0.0087890625,0,0,0.0087890625,14.3173828125,0)" xlink:href="#aE"/><use transform="matrix(0.0087890625,0,0,0.0087890625,20.2412109375,0)" xlink:href="#az"/><use transform="matrix(0.0087890625,0,0,0.0087890625,29.77734375,0)" xlink:href="#aV"/><use transform="matrix(0.0087890625,0,0,0.0087890625,43.3037109375,0)" xlink:href="#aw"/><use transform="matrix(0.0087890625,0,0,0.0087890625,53.0947265625,0)" xlink:href="#aM"/><use transform="matrix(0.0087890625,0,0,0.0087890625,57.462890625,0)" xlink:href="#aM"/></g><g id="ac"><use transform="matrix(0.0087890625,0,0,0.0087890625,0,0)" xlink:href="#bc"/><use transform="matrix(0.0087890625,0,0,0.0087890625,11.2587890625,0)" xlink:href="#aw"/><use transform="matrix(0.0087890625,0,0,0.0087890625,21.0498046875,0)" xlink:href="#aB"/><use transform="matrix(0.0087890625,0,0,0.0087890625,26.9296875,0)" xlink:href="#aN"/><use transform="matrix(0.0087890625,0,0,0.0087890625,36.3515625,0)" xlink:href="#aX"/></g><g id="ad"><use transform="matrix(0.0087890625,0,0,0.0087890625,0,0)" xlink:href="#aT"/><use transform="matrix(0.0087890625,0,0,0.0087890625,12.375,0)" xlink:href="#bh"/><use transform="matrix(0.0087890625,0,0,0.0087890625,18.6240234375,0)" xlink:href="#bh"/><use transform="matrix(0.0087890625,0,0,0.0087890625,24.873046875,0)" xlink:href="#bf"/><use transform="matrix(0.0087890625,0,0,0.0087890625,29.8388671875,0)" xlink:href="#aR"/><use transform="matrix(0.0087890625,0,0,0.0087890625,40.517578125,0)" xlink:href="#aD"/><use transform="matrix(0.0087890625,0,0,0.0087890625,44.8857421875,0)" xlink:href="#aB"/><use transform="matrix(0.0087890625,0,0,0.0087890625,50.765625,0)" xlink:href="#az"/></g><g id="ae"><use transform="matrix(0.0087890625,0,0,0.0087890625,0,0)" xlink:href="#aI"/><use transform="matrix(0.0087890625,0,0,0.0087890625,11.2060546875,0)" xlink:href="#aw"/><use transform="matrix(0.0087890625,0,0,0.0087890625,20.9970703125,0)" xlink:href="#aN"/><use transform="matrix(0.0087890625,0,0,0.0087890625,30.4189453125,0)" xlink:href="#aZ"/><use transform="matrix(0.0087890625,0,0,0.0087890625,39.5419921875,0)" xlink:href="#ba"/><use transform="matrix(0.0087890625,0,0,0.0087890625,49.46484375,0)" xlink:href="#aL"/></g><path d="M730-137c145 0 253-29 323-105v-327H716v-156h528v534C1148-51 964 20 729 20c-394 0-598-279-607-678v-127c-5-410 194-690 585-691 310-1 499 171 537 447h-192c-36-193-151-289-344-289-285 0-393 220-393 528v119c-5 296 140 534 415 534" id="bj"/><g id="af"><use transform="matrix(0.0087890625,0,0,0.0087890625,0,0)" xlink:href="#bj"/><use transform="matrix(0.0087890625,0,0,0.0087890625,12.2607421875,0)" xlink:href="#aw"/><use transform="matrix(0.0087890625,0,0,0.0087890625,22.0517578125,0)" xlink:href="#aB"/><use transform="matrix(0.0087890625,0,0,0.0087890625,27.931640625,0)" xlink:href="#az"/><use transform="matrix(0.0087890625,0,0,0.0087890625,37.4677734375,0)" xlink:href="#aV"/><use transform="matrix(0.0087890625,0,0,0.0087890625,50.994140625,0)" xlink:href="#aw"/><use transform="matrix(0.0087890625,0,0,0.0087890625,60.6533203125,0)" xlink:href="#aW"/></g><path d="M665-137c214 0 337-121 336-332v-987h193v990c-3 300-218 486-529 486-309 0-526-181-525-484v-992h190v986c-1 210 123 333 335 333" id="bk"/><g id="ag"><use transform="matrix(0.0087890625,0,0,0.0087890625,0,0)" xlink:href="#bk"/><use transform="matrix(0.0087890625,0,0,0.0087890625,11.671875,0)" xlink:href="#aB"/><use transform="matrix(0.0087890625,0,0,0.0087890625,17.5517578125,0)" xlink:href="#aD"/><use transform="matrix(0.0087890625,0,0,0.0087890625,21.919921875,0)" xlink:href="#aM"/><use transform="matrix(0.0087890625,0,0,0.0087890625,26.2880859375,0)" xlink:href="#aD"/><use transform="matrix(0.0087890625,0,0,0.0087890625,30.65625,0)" xlink:href="#aB"/><use transform="matrix(0.0087890625,0,0,0.0087890625,36.5361328125,0)" xlink:href="#aW"/></g><g id="ah"><use transform="matrix(0.0087890625,0,0,0.0087890625,0,0)" xlink:href="#aU"/><use transform="matrix(0.0087890625,0,0,0.0087890625,9.7646484375,0)" xlink:href="#aO"/><use transform="matrix(0.0087890625,0,0,0.0087890625,20.0302734375,0)" xlink:href="#aE"/><use transform="matrix(0.0087890625,0,0,0.0087890625,26.2705078125,0)" xlink:href="#aV"/><use transform="matrix(0.0087890625,0,0,0.0087890625,39.796875,0)" xlink:href="#aw"/><use transform="matrix(0.0087890625,0,0,0.0087890625,49.587890625,0)" xlink:href="#aE"/><use transform="matrix(0.0087890625,0,0,0.0087890625,55.51171875,0)" xlink:href="#bg"/></g><path d="M503-687l240-395h216L605-547 970 0H756L506-405 256 0H41l365-547-354-535h214" id="bl"/><g id="ai"><use transform="matrix(0.0087890625,0,0,0.0087890625,0,0)" xlink:href="#bc"/><use transform="matrix(0.0087890625,0,0,0.0087890625,11.35546875,0)" xlink:href="#aE"/><use transform="matrix(0.0087890625,0,0,0.0087890625,17.2705078125,0)" xlink:href="#aO"/><use transform="matrix(0.0087890625,0,0,0.0087890625,27.3515625,0)" xlink:href="#bl"/><use transform="matrix(0.0087890625,0,0,0.0087890625,36.2724609375,0)" xlink:href="#aW"/></g><g id="aj"><use transform="matrix(0.0087890625,0,0,0.0087890625,0,0)" xlink:href="#aJ"/><use transform="matrix(0.0087890625,0,0,0.0087890625,4.8955078125,0)" xlink:href="#ax"/><use transform="matrix(0.0087890625,0,0,0.0087890625,14.8271484375,0)" xlink:href="#aB"/><use transform="matrix(0.0087890625,0,0,0.0087890625,20.70703125,0)" xlink:href="#az"/><use transform="matrix(0.0087890625,0,0,0.0087890625,30.2431640625,0)" xlink:href="#ay"/><use transform="matrix(0.0087890625,0,0,0.0087890625,40.341796875,0)" xlink:href="#aE"/><use transform="matrix(0.0087890625,0,0,0.0087890625,46.0810546875,0)" xlink:href="#aw"/><use transform="matrix(0.0087890625,0,0,0.0087890625,55.8720703125,0)" xlink:href="#aB"/><use transform="matrix(0.0087890625,0,0,0.0087890625,61.751953125,0)" xlink:href="#aD"/><use transform="matrix(0.0087890625,0,0,0.0087890625,66.1201171875,0)" xlink:href="#aO"/><use transform="matrix(0.0087890625,0,0,0.0087890625,76.3857421875,0)" xlink:href="#ax"/></g><g id="ak"><use transform="matrix(0.0087890625,0,0,0.0087890625,0,0)" xlink:href="#av"/><use transform="matrix(0.0087890625,0,0,0.0087890625,15.71484375,0)" xlink:href="#az"/><use transform="matrix(0.0087890625,0,0,0.0087890625,25.2509765625,0)" xlink:href="#aQ"/><use transform="matrix(0.0087890625,0,0,0.0087890625,34.5322265625,0)" xlink:href="#aQ"/><use transform="matrix(0.0087890625,0,0,0.0087890625,43.8134765625,0)" xlink:href="#aw"/><use transform="matrix(0.0087890625,0,0,0.0087890625,53.6044921875,0)" xlink:href="#ay"/><use transform="matrix(0.0087890625,0,0,0.0087890625,63.703125,0)" xlink:href="#az"/></g><g id="al"><use transform="matrix(0.0087890625,0,0,0.0087890625,0,0)" xlink:href="#aI"/><use transform="matrix(0.0087890625,0,0,0.0087890625,11.2060546875,0)" xlink:href="#ba"/><use transform="matrix(0.0087890625,0,0,0.0087890625,21.12890625,0)" xlink:href="#aQ"/></g><g id="am"><use transform="matrix(0.0087890625,0,0,0.0087890625,0,0)" xlink:href="#aO"/><use transform="matrix(0.0087890625,0,0,0.0087890625,10.265625,0)" xlink:href="#aE"/></g><g id="an"><use transform="matrix(0.0087890625,0,0,0.0087890625,0,0)" xlink:href="#aK"/><use transform="matrix(0.0087890625,0,0,0.0087890625,11.7421875,0)" xlink:href="#bc"/><use transform="matrix(0.0087890625,0,0,0.0087890625,23.09765625,0)" xlink:href="#aJ"/></g><g id="ao"><use transform="matrix(0.0087890625,0,0,0.0087890625,0,0)" xlink:href="#bj"/><use transform="matrix(0.0087890625,0,0,0.0087890625,12.2607421875,0)" xlink:href="#aw"/><use transform="matrix(0.0087890625,0,0,0.0087890625,22.0517578125,0)" xlink:href="#aB"/><use transform="matrix(0.0087890625,0,0,0.0087890625,27.931640625,0)" xlink:href="#az"/><use transform="matrix(0.0087890625,0,0,0.0087890625,37.4677734375,0)" xlink:href="#aV"/><use transform="matrix(0.0087890625,0,0,0.0087890625,50.994140625,0)" xlink:href="#aw"/><use transform="matrix(0.0087890625,0,0,0.0087890625,60.6533203125,0)" xlink:href="#aW"/></g><g id="ap"><use transform="matrix(0.0087890625,0,0,0.0087890625,0,0)" xlink:href="#aT"/><use transform="matrix(0.0087890625,0,0,0.0087890625,12.375,0)" xlink:href="#aL"/><use transform="matrix(0.0087890625,0,0,0.0087890625,22.4736328125,0)" xlink:href="#az"/><use transform="matrix(0.0087890625,0,0,0.0087890625,32.009765625,0)" xlink:href="#aE"/><use transform="matrix(0.0087890625,0,0,0.0087890625,37.7490234375,0)" xlink:href="#aw"/><use transform="matrix(0.0087890625,0,0,0.0087890625,47.5400390625,0)" xlink:href="#aB"/><use transform="matrix(0.0087890625,0,0,0.0087890625,53.419921875,0)" xlink:href="#aD"/><use transform="matrix(0.0087890625,0,0,0.0087890625,57.7880859375,0)" xlink:href="#ax"/><use transform="matrix(0.0087890625,0,0,0.0087890625,67.7197265625,0)" xlink:href="#ay"/></g><g id="aq"><use transform="matrix(0.0087890625,0,0,0.0087890625,0,0)" xlink:href="#aR"/><use transform="matrix(0.0087890625,0,0,0.0087890625,10.6787109375,0)" xlink:href="#aW"/><use transform="matrix(0.0087890625,0,0,0.0087890625,19.1953125,0)" xlink:href="#aQ"/><use transform="matrix(0.0087890625,0,0,0.0087890625,28.4765625,0)" xlink:href="#aB"/><use transform="matrix(0.0087890625,0,0,0.0087890625,34.3564453125,0)" xlink:href="#az"/><use transform="matrix(0.0087890625,0,0,0.0087890625,43.892578125,0)" xlink:href="#aA"/><use transform="matrix(0.0087890625,0,0,0.0087890625,59.6689453125,0)" xlink:href="#aQ"/></g><g id="ar"><use transform="matrix(0.0087890625,0,0,0.0087890625,0,0)" xlink:href="#aX"/><use transform="matrix(0.0087890625,0,0,0.0087890625,9.9140625,0)" xlink:href="#aw"/><use transform="matrix(0.0087890625,0,0,0.0087890625,19.705078125,0)" xlink:href="#aE"/><use transform="matrix(0.0087890625,0,0,0.0087890625,25.62890625,0)" xlink:href="#bg"/><use transform="matrix(0.0087890625,0,0,0.0087890625,35.7802734375,0)" xlink:href="#az"/><use transform="matrix(0.0087890625,0,0,0.0087890625,45.31640625,0)" xlink:href="#ax"/><use transform="matrix(0.0087890625,0,0,0.0087890625,55.248046875,0)" xlink:href="#az"/><use transform="matrix(0.0087890625,0,0,0.0087890625,64.7841796875,0)" xlink:href="#bg"/></g><g id="as"><use transform="matrix(0.0087890625,0,0,0.0087890625,0,0)" xlink:href="#aV"/><use transform="matrix(0.0087890625,0,0,0.0087890625,13.5263671875,0)" xlink:href="#aD"/><use transform="matrix(0.0087890625,0,0,0.0087890625,17.89453125,0)" xlink:href="#aB"/><use transform="matrix(0.0087890625,0,0,0.0087890625,23.7744140625,0)" xlink:href="#aX"/></g><path d="M688-137c238 0 323-102 359-325h193c-32 297-228 482-552 482-361 0-569-299-569-680 0-197 8-360 73-497 88-186 257-317 513-319 316-2 509 195 535 488h-193c-31-212-118-330-342-330-272 0-397 224-393 523v141c-3 282 115 517 376 517" id="bm"/><g id="at"><use transform="matrix(0.0087890625,0,0,0.0087890625,0,0)" xlink:href="#bm"/><use transform="matrix(0.0087890625,0,0,0.0087890625,11.7158203125,0)" xlink:href="#aJ"/><use transform="matrix(0.0087890625,0,0,0.0087890625,16.611328125,0)" xlink:href="#aR"/></g><g id="au"><use transform="matrix(0.0087890625,0,0,0.0087890625,0,0)" xlink:href="#aI"/><use transform="matrix(0.0087890625,0,0,0.0087890625,11.2060546875,0)" xlink:href="#az"/><use transform="matrix(0.0087890625,0,0,0.0087890625,20.7421875,0)" xlink:href="#ax"/><use transform="matrix(0.0087890625,0,0,0.0087890625,30.673828125,0)" xlink:href="#aN"/><use transform="matrix(0.0087890625,0,0,0.0087890625,40.095703125,0)" xlink:href="#aX"/><use transform="matrix(0.0087890625,0,0,0.0087890625,50.009765625,0)" xlink:href="#aA"/><use transform="matrix(0.0087890625,0,0,0.0087890625,65.7861328125,0)" xlink:href="#aw"/><use transform="matrix(0.0087890625,0,0,0.0087890625,75.5771484375,0)" xlink:href="#aE"/><use transform="matrix(0.0087890625,0,0,0.0087890625,81.66796875,0)" xlink:href="#aZ"/><use transform="matrix(0.0087890625,0,0,0.0087890625,90.791015625,0)" xlink:href="#aQ"/></g></defs></g></svg>